<?xml version="1.0" encoding="utf-8" standalone="no"?>
<!DOCTYPE svg PUBLIC "-//W3C//DTD SVG 1.1//EN"
  "http://www.w3.org/Graphics/SVG/1.1/DTD/svg11.dtd">
<svg xmlns:xlink="http://www.w3.org/1999/xlink" width="524.0304pt" height="385.170637pt" viewBox="0 0 524.0304 385.170637" xmlns="http://www.w3.org/2000/svg" version="1.1">
 <metadata>
  <rdf:RDF xmlns:dc="http://purl.org/dc/elements/1.1/" xmlns:cc="http://creativecommons.org/ns#" xmlns:rdf="http://www.w3.org/1999/02/22-rdf-syntax-ns#">
   <cc:Work>
    <dc:type rdf:resource="http://purl.org/dc/dcmitype/StillImage"/>
    <dc:date>2026-07-13T16:38:58.800494</dc:date>
    <dc:format>image/svg+xml</dc:format>
    <dc:creator>
     <cc:Agent>
      <dc:title>Matplotlib v3.9.4, https://matplotlib.org/</dc:title>
     </cc:Agent>
    </dc:creator>
   </cc:Work>
  </rdf:RDF>
 </metadata>
 <defs>
  <style type="text/css">*{stroke-linejoin: round; stroke-linecap: butt}</style>
 </defs>
 <g id="figure_1">
  <g id="patch_1">
   <path d="M 0 385.170637 
L 524.0304 385.170637 
L 524.0304 0 
L 0 0 
z
" style="fill: #ffffff"/>
  </g>
  <g id="axes_1">
   <g id="patch_2">
    <path d="M 15.624 109.25115 
L 254.283017 109.25115 
L 254.283017 29.5272 
L 15.624 29.5272 
z
" style="fill: #ffffff"/>
   </g>
   <g id="patch_3">
    <path d="M 23.499748 61.576228 
L 55.480056 61.576228 
Q 61.446531 61.576228 61.446531 59.583129 
L 61.446531 44.116683 
Q 61.446531 42.123584 55.480056 42.123584 
L 23.499748 42.123584 
Q 17.533272 42.123584 17.533272 44.116683 
L 17.533272 59.583129 
Q 17.533272 61.576228 23.499748 61.576228 
z
" clip-path="url(#p2a06bbbd8e)" style="fill: #eef3f8; stroke: #b8c2c8; stroke-width: 0.8; stroke-linejoin: miter"/>
   </g>
   <g id="patch_4">
    <path d="M 71.231551 61.576228 
L 100.825269 61.576228 
Q 106.791745 61.576228 106.791745 59.583129 
L 106.791745 44.116683 
Q 106.791745 42.123584 100.825269 42.123584 
L 71.231551 42.123584 
Q 65.265076 42.123584 65.265076 44.116683 
L 65.265076 59.583129 
Q 65.265076 61.576228 71.231551 61.576228 
z
" clip-path="url(#p2a06bbbd8e)" style="fill: #eef3f8; stroke: #b8c2c8; stroke-width: 0.8; stroke-linejoin: miter"/>
   </g>
   <g id="patch_5">
    <path d="M 118.963354 61.576228 
L 146.170482 61.576228 
Q 152.136958 61.576228 152.136958 59.583129 
L 152.136958 44.116683 
Q 152.136958 42.123584 146.170482 42.123584 
L 118.963354 42.123584 
Q 112.996879 42.123584 112.996879 44.116683 
L 112.996879 59.583129 
Q 112.996879 61.576228 118.963354 61.576228 
z
" clip-path="url(#p2a06bbbd8e)" style="fill: #eef3f8; stroke: #b8c2c8; stroke-width: 0.8; stroke-linejoin: miter"/>
   </g>
   <g id="patch_6">
    <path d="M 164.308568 61.576228 
L 191.515696 61.576228 
Q 197.482171 61.576228 197.482171 59.583129 
L 197.482171 44.116683 
Q 197.482171 42.123584 191.515696 42.123584 
L 164.308568 42.123584 
Q 158.342092 42.123584 158.342092 44.116683 
L 158.342092 59.583129 
Q 158.342092 61.576228 164.308568 61.576228 
z
" clip-path="url(#p2a06bbbd8e)" style="fill: #eef3f8; stroke: #b8c2c8; stroke-width: 0.8; stroke-linejoin: miter"/>
   </g>
   <g id="patch_7">
    <path d="M 209.653781 61.576228 
L 241.634089 61.576228 
Q 247.600565 61.576228 247.600565 59.583129 
L 247.600565 44.116683 
Q 247.600565 42.123584 241.634089 42.123584 
L 209.653781 42.123584 
Q 203.687306 42.123584 203.687306 44.116683 
L 203.687306 59.583129 
Q 203.687306 61.576228 209.653781 61.576228 
z
" clip-path="url(#p2a06bbbd8e)" style="fill: #eef3f8; stroke: #b8c2c8; stroke-width: 0.8; stroke-linejoin: miter"/>
   </g>
   <g id="patch_8">
    <path d="M 49.752239 100.640964 
L 220.154778 100.640964 
Q 226.121253 100.640964 226.121253 98.647865 
L 226.121253 79.195221 
Q 226.121253 77.202122 220.154778 77.202122 
L 49.752239 77.202122 
Q 43.785764 77.202122 43.785764 79.195221 
L 43.785764 98.647865 
Q 43.785764 100.640964 49.752239 100.640964 
z
" clip-path="url(#p2a06bbbd8e)" style="fill: #fff8e7; stroke: #e8c878; stroke-width: 0.8; stroke-linejoin: miter"/>
   </g>
   <g id="matplotlib.axis_1"/>
   <g id="matplotlib.axis_2"/>
   <g id="text_1">
    <text style="fill: #263238; font: 700 10px 'Arial', 'Helvetica', 'Liberation Sans', 'DejaVu Sans', sans-serif; text-anchor: start" x="6.077639" y="24.364804" transform="rotate(-0 6.077639 24.364804)">A</text>
   </g>
   <g id="text_2">
    <text style="fill: #263238; font: 700 8.2px 'Arial', 'Helvetica', 'Liberation Sans', 'DejaVu Sans', sans-serif; text-anchor: start" x="34.716721" y="26.314502" transform="rotate(-0 34.716721 26.314502)">Data source and benchmark construction</text>
   </g>
   <g id="text_3">
    <text style="fill: #263238; font: 700 6.8px 'Arial', 'Helvetica', 'Liberation Sans', 'DejaVu Sans', sans-serif" transform="translate(19.086714 46.429881)">CELLxGENE</text>
    <text style="fill: #263238; font: 700 6.8px 'Arial', 'Helvetica', 'Liberation Sans', 'DejaVu Sans', sans-serif" transform="translate(27.208995 53.612594)">Census</text>
    <text style="fill: #263238; font: 700 6.8px 'Arial', 'Helvetica', 'Liberation Sans', 'DejaVu Sans', sans-serif" transform="translate(22.286964 60.795306)">2025-11-08</text>
   </g>
   <g id="text_4">
    <text style="fill: #263238; font: 6.8px 'Arial', 'Helvetica', 'Liberation Sans', 'DejaVu Sans', sans-serif" transform="translate(65.805848 50.011675)">Human blood</text>
    <text style="fill: #263238; font: 6.8px 'Arial', 'Helvetica', 'Liberation Sans', 'DejaVu Sans', sans-serif" transform="translate(71.853598 57.20395)">metadata</text>
   </g>
   <g id="text_5">
    <text style="fill: #263238; font: 6.8px 'Arial', 'Helvetica', 'Liberation Sans', 'DejaVu Sans', sans-serif" transform="translate(124.443575 50.011675)">T-cell</text>
    <text style="fill: #263238; font: 6.8px 'Arial', 'Helvetica', 'Liberation Sans', 'DejaVu Sans', sans-serif" transform="translate(117.827387 57.20395)">extraction</text>
   </g>
   <g id="text_6">
    <text style="fill: #263238; font: 6.8px 'Arial', 'Helvetica', 'Liberation Sans', 'DejaVu Sans', sans-serif" transform="translate(160.528038 49.922106)">Donor-level</text>
    <text style="fill: #263238; font: 6.8px 'Arial', 'Helvetica', 'Liberation Sans', 'DejaVu Sans', sans-serif" transform="translate(166.952444 57.213831)">filtering</text>
   </g>
   <g id="text_7">
    <text style="fill: #263238; font: 700 6.8px 'Arial', 'Helvetica', 'Liberation Sans', 'DejaVu Sans', sans-serif" transform="translate(204.551716 49.931987)">Young vs old</text>
    <text style="fill: #263238; font: 700 6.8px 'Arial', 'Helvetica', 'Liberation Sans', 'DejaVu Sans', sans-serif" transform="translate(209.203341 57.20395)">age labels</text>
   </g>
   <g id="patch_9">
    <path d="M 60.582325 51.849906 
Q 63.355206 51.849906 65.010053 51.849906 
" style="fill: none; stroke: #61717a; stroke-linecap: round"/>
    <path d="M 62.130053 50.409906 
L 65.010053 51.849906 
L 62.130053 53.289906 
z
" style="fill: #61717a; stroke: #61717a; stroke-linecap: round"/>
   </g>
   <g id="patch_10">
    <path d="M 105.929286 51.849906 
Q 109.893642 51.849906 112.739965 51.849906 
" style="fill: none; stroke: #61717a; stroke-linecap: round"/>
    <path d="M 109.859965 50.409906 
L 112.739965 51.849906 
L 109.859965 53.289906 
z
" style="fill: #61717a; stroke: #61717a; stroke-linecap: round"/>
   </g>
   <g id="patch_11">
    <path d="M 151.274499 51.849906 
Q 155.238856 51.849906 158.085178 51.849906 
" style="fill: none; stroke: #61717a; stroke-linecap: round"/>
    <path d="M 155.205178 50.409906 
L 158.085178 51.849906 
L 155.205178 53.289906 
z
" style="fill: #61717a; stroke: #61717a; stroke-linecap: round"/>
   </g>
   <g id="patch_12">
    <path d="M 196.619712 51.849906 
Q 200.584069 51.849906 203.430392 51.849906 
" style="fill: none; stroke: #61717a; stroke-linecap: round"/>
    <path d="M 200.550392 50.409906 
L 203.430392 51.849906 
L 200.550392 53.289906 
z
" style="fill: #61717a; stroke: #61717a; stroke-linecap: round"/>
   </g>
   <g id="text_8">
    <text style="fill: #263238; font: 700 7px 'Arial', 'Helvetica', 'Liberation Sans', 'DejaVu Sans', sans-serif" transform="translate(93.333587 79.392465)">Final benchmark stratum</text>
    <text style="fill: #263238; font: 700 7px 'Arial', 'Helvetica', 'Liberation Sans', 'DejaVu Sans', sans-serif" transform="translate(73.85554 86.888809)">1,075 cells | 140 donors | 13 datasets</text>
    <text style="fill: #263238; font: 700 7px 'Arial', 'Helvetica', 'Liberation Sans', 'DejaVu Sans', sans-serif" transform="translate(60.288665 94.39959)">Age groups: 70 young donors, 70 old donors</text>
    <text style="fill: #263238; font: 700 7px 'Arial', 'Helvetica', 'Liberation Sans', 'DejaVu Sans', sans-serif" transform="translate(54.057024 101.987809)">Cell annotation: T cell (1 reported cell-type label)</text>
   </g>
  </g>
  <g id="axes_2">
   <g id="patch_13">
    <path d="M 283.211383 109.25115 
L 521.8704 109.25115 
L 521.8704 29.5272 
L 283.211383 29.5272 
z
" style="fill: #ffffff"/>
   </g>
   <g id="patch_14">
    <path d="M 295.860311 76.723779 
L 332.613799 76.723779 
Q 338.580275 76.723779 338.580275 74.73068 
L 338.580275 59.264234 
Q 338.580275 57.271135 332.613799 57.271135 
L 295.860311 57.271135 
Q 289.893835 57.271135 289.893835 59.264234 
L 289.893835 74.73068 
Q 289.893835 76.723779 295.860311 76.723779 
z
" clip-path="url(#p5d7667a3ea)" style="fill: #f4f6f8; stroke: #b8c2c8; stroke-width: 0.8; stroke-linejoin: miter"/>
   </g>
   <g id="patch_15">
    <path d="M 369.844606 52.009354 
L 416.144455 52.009354 
Q 422.110931 52.009354 422.110931 50.016255 
L 422.110931 38.536006 
Q 422.110931 36.542908 416.144455 36.542908 
L 369.844606 36.542908 
Q 363.878131 36.542908 363.878131 38.536006 
L 363.878131 50.016255 
Q 363.878131 52.009354 369.844606 52.009354 
z
" clip-path="url(#p5d7667a3ea)" style="fill: #54a24b; fill-opacity: 0.133333; stroke: #54a24b; stroke-width: 0.8; stroke-linejoin: miter"/>
   </g>
   <g id="patch_16">
    <path d="M 453.375262 52.009354 
L 497.288521 52.009354 
Q 503.254997 52.009354 503.254997 50.016255 
L 503.254997 38.536006 
Q 503.254997 36.542908 497.288521 36.542908 
L 453.375262 36.542908 
Q 447.408787 36.542908 447.408787 38.536006 
L 447.408787 50.016255 
Q 447.408787 52.009354 453.375262 52.009354 
z
" clip-path="url(#p5d7667a3ea)" style="fill: #ffffff; stroke: #54a24b; stroke-width: 0.8; stroke-linejoin: miter"/>
   </g>
   <g id="patch_17">
    <path d="M 369.844606 74.33206 
L 416.144455 74.33206 
Q 422.110931 74.33206 422.110931 72.338961 
L 422.110931 60.858713 
Q 422.110931 58.865614 416.144455 58.865614 
L 369.844606 58.865614 
Q 363.878131 58.865614 363.878131 60.858713 
L 363.878131 72.338961 
Q 363.878131 74.33206 369.844606 74.33206 
z
" clip-path="url(#p5d7667a3ea)" style="fill: #b279a2; fill-opacity: 0.133333; stroke: #b279a2; stroke-width: 0.8; stroke-linejoin: miter"/>
   </g>
   <g id="patch_18">
    <path d="M 453.375262 74.33206 
L 497.288521 74.33206 
Q 503.254997 74.33206 503.254997 72.338961 
L 503.254997 60.858713 
Q 503.254997 58.865614 497.288521 58.865614 
L 453.375262 58.865614 
Q 447.408787 58.865614 447.408787 60.858713 
L 447.408787 72.338961 
Q 447.408787 74.33206 453.375262 74.33206 
z
" clip-path="url(#p5d7667a3ea)" style="fill: #ffffff; stroke: #b279a2; stroke-width: 0.8; stroke-linejoin: miter"/>
   </g>
   <g id="patch_19">
    <path d="M 369.844606 96.654766 
L 416.144455 96.654766 
Q 422.110931 96.654766 422.110931 94.661667 
L 422.110931 83.181419 
Q 422.110931 81.18832 416.144455 81.18832 
L 369.844606 81.18832 
Q 363.878131 81.18832 363.878131 83.181419 
L 363.878131 94.661667 
Q 363.878131 96.654766 369.844606 96.654766 
z
" clip-path="url(#p5d7667a3ea)" style="fill: #6b6b6b; fill-opacity: 0.133333; stroke: #6b6b6b; stroke-width: 0.8; stroke-linejoin: miter"/>
   </g>
   <g id="patch_20">
    <path d="M 453.375262 96.654766 
L 497.288521 96.654766 
Q 503.254997 96.654766 503.254997 94.661667 
L 503.254997 83.181419 
Q 503.254997 81.18832 497.288521 81.18832 
L 453.375262 81.18832 
Q 447.408787 81.18832 447.408787 83.181419 
L 447.408787 94.661667 
Q 447.408787 96.654766 453.375262 96.654766 
z
" clip-path="url(#p5d7667a3ea)" style="fill: #ffffff; stroke: #6b6b6b; stroke-width: 0.8; stroke-linejoin: miter"/>
   </g>
   <g id="patch_21">
    <path d="M 372.231196 110.207838 
L 492.515341 110.207838 
Q 498.481816 110.207838 498.481816 108.214739 
L 498.481816 102.315167 
Q 498.481816 100.322068 492.515341 100.322068 
L 372.231196 100.322068 
Q 366.264721 100.322068 366.264721 102.315167 
L 366.264721 108.214739 
Q 366.264721 110.207838 372.231196 110.207838 
z
" clip-path="url(#p5d7667a3ea)" style="fill: #eef7f4; stroke: #9bc7bd; stroke-width: 0.8; stroke-linejoin: miter"/>
   </g>
   <g id="matplotlib.axis_3"/>
   <g id="matplotlib.axis_4"/>
   <g id="text_9">
    <text style="fill: #263238; font: 700 10px 'Arial', 'Helvetica', 'Liberation Sans', 'DejaVu Sans', sans-serif; text-anchor: start" x="273.665022" y="24.364804" transform="rotate(-0 273.665022 24.364804)">B</text>
   </g>
   <g id="text_10">
    <text style="fill: #263238; font: 700 8.2px 'Arial', 'Helvetica', 'Liberation Sans', 'DejaVu Sans', sans-serif; text-anchor: start" x="302.304104" y="26.314502" transform="rotate(-0 302.304104 26.314502)">Representations and prediction models</text>
   </g>
   <g id="text_11">
    <text style="fill: #263238; font: 700 6.8px 'Arial', 'Helvetica', 'Liberation Sans', 'DejaVu Sans', sans-serif" transform="translate(296.658524 61.577432)">Same cells</text>
    <text style="fill: #263238; font: 700 6.8px 'Arial', 'Helvetica', 'Liberation Sans', 'DejaVu Sans', sans-serif" transform="translate(293.076305 68.760144)">same donors</text>
    <text style="fill: #263238; font: 700 6.8px 'Arial', 'Helvetica', 'Liberation Sans', 'DejaVu Sans', sans-serif" transform="translate(294.959055 75.942857)">same labels</text>
   </g>
   <g id="text_12">
    <text style="fill: #263238; font: 700 6.8px 'Arial', 'Helvetica', 'Liberation Sans', 'DejaVu Sans', sans-serif" transform="translate(386.000624 42.447462)">scVI</text>
    <text style="fill: #263238; font: 700 6.8px 'Arial', 'Helvetica', 'Liberation Sans', 'DejaVu Sans', sans-serif" transform="translate(375.041468 49.630175)">50 features</text>
   </g>
   <g id="patch_22">
    <path d="M 337.333549 65.81313 
Q 351.231861 55.634847 364.228157 46.117146 
" style="fill: none; stroke: #54a24b; stroke-linecap: round"/>
    <path d="M 361.053797 46.656998 
L 364.228157 46.117146 
L 362.755422 48.980545 
z
" style="fill: #54a24b; stroke: #54a24b; stroke-linecap: round"/>
   </g>
   <g id="text_13">
    <text style="fill: #263238; font: 6.8px 'Arial', 'Helvetica', 'Liberation Sans', 'DejaVu Sans', sans-serif" transform="translate(463.804298 42.358212)">Logistic</text>
    <text style="fill: #263238; font: 6.8px 'Arial', 'Helvetica', 'Liberation Sans', 'DejaVu Sans', sans-serif" transform="translate(459.458673 49.630175)">regression</text>
   </g>
   <g id="patch_23">
    <path d="M 421.250511 44.276131 
Q 434.760777 44.276131 447.153009 44.276131 
" style="fill: none; stroke: #54a24b; stroke-linecap: round"/>
    <path d="M 444.273009 42.836131 
L 447.153009 44.276131 
L 444.273009 45.716131 
z
" style="fill: #54a24b; stroke: #54a24b; stroke-linecap: round"/>
   </g>
   <g id="text_14">
    <text style="fill: #263238; font: 700 6.8px 'Arial', 'Helvetica', 'Liberation Sans', 'DejaVu Sans', sans-serif" transform="translate(364.841999 64.770168)">TranscriptFormer</text>
    <text style="fill: #263238; font: 700 6.8px 'Arial', 'Helvetica', 'Liberation Sans', 'DejaVu Sans', sans-serif" transform="translate(370.315468 71.952881)">2,048 features</text>
   </g>
   <g id="patch_24">
    <path d="M 337.719855 66.971716 
Q 351.230121 66.798135 363.622445 66.638918 
" style="fill: none; stroke: #b279a2; stroke-linecap: round"/>
    <path d="M 360.724183 65.236036 
L 363.622445 66.638918 
L 360.761182 68.115798 
z
" style="fill: #b279a2; stroke: #b279a2; stroke-linecap: round"/>
   </g>
   <g id="text_15">
    <text style="fill: #263238; font: 6.8px 'Arial', 'Helvetica', 'Liberation Sans', 'DejaVu Sans', sans-serif" transform="translate(463.804298 64.680918)">Logistic</text>
    <text style="fill: #263238; font: 6.8px 'Arial', 'Helvetica', 'Liberation Sans', 'DejaVu Sans', sans-serif" transform="translate(459.458673 71.952881)">regression</text>
   </g>
   <g id="patch_25">
    <path d="M 421.250511 66.598837 
Q 434.760777 66.598837 447.153009 66.598837 
" style="fill: none; stroke: #b279a2; stroke-linecap: round"/>
    <path d="M 444.273009 65.158837 
L 447.153009 66.598837 
L 444.273009 68.038837 
z
" style="fill: #b279a2; stroke: #b279a2; stroke-linecap: round"/>
   </g>
   <g id="text_16">
    <text style="fill: #263238; font: 700 6.8px 'Arial', 'Helvetica', 'Liberation Sans', 'DejaVu Sans', sans-serif" transform="translate(370.138031 87.048249)">Metadata-only</text>
    <text style="fill: #263238; font: 700 6.8px 'Arial', 'Helvetica', 'Liberation Sans', 'DejaVu Sans', sans-serif" transform="translate(379.389218 94.320212)">baseline</text>
   </g>
   <g id="patch_26">
    <path d="M 337.348699 68.150933 
Q 351.229086 77.959418 364.196404 87.122687 
" style="fill: none; stroke: #6b6b6b; stroke-linecap: round"/>
    <path d="M 362.675401 84.284633 
L 364.196404 87.122687 
L 361.013359 86.636657 
z
" style="fill: #6b6b6b; stroke: #6b6b6b; stroke-linecap: round"/>
   </g>
   <g id="text_17">
    <text style="fill: #263238; font: 6.8px 'Arial', 'Helvetica', 'Liberation Sans', 'DejaVu Sans', sans-serif" transform="translate(463.804298 87.003624)">Logistic</text>
    <text style="fill: #263238; font: 6.8px 'Arial', 'Helvetica', 'Liberation Sans', 'DejaVu Sans', sans-serif" transform="translate(459.458673 94.275587)">regression</text>
   </g>
   <g id="patch_27">
    <path d="M 421.250511 88.921543 
Q 434.760777 88.921543 447.153009 88.921543 
" style="fill: none; stroke: #6b6b6b; stroke-linecap: round"/>
    <path d="M 444.273009 87.481543 
L 447.153009 88.921543 
L 444.273009 90.361543 
z
" style="fill: #6b6b6b; stroke: #6b6b6b; stroke-linecap: round"/>
   </g>
   <g id="text_18">
    <text style="fill: #263238; font: 6.5px 'Arial', 'Helvetica', 'Liberation Sans', 'DejaVu Sans', sans-serif; text-anchor: middle" x="432.373269" y="106.946828" transform="rotate(-0 432.373269 106.946828)">Cell-level prediction + donor-mean aggregation</text>
   </g>
  </g>
  <g id="axes_3">
   <g id="patch_28">
    <path d="M 15.624 233.554076 
L 254.283017 233.554076 
L 254.283017 153.830126 
L 15.624 153.830126 
z
" style="fill: #ffffff"/>
   </g>
   <g id="patch_29">
    <path d="M 42.592469 177.10952 
L 84.119138 177.10952 
Q 90.085613 177.10952 90.085613 175.116421 
L 90.085613 167.622369 
Q 90.085613 165.629271 84.119138 165.629271 
L 42.592469 165.629271 
Q 36.625994 165.629271 36.625994 167.622369 
L 36.625994 175.116421 
Q 36.625994 177.10952 42.592469 177.10952 
z
" clip-path="url(#p49d5fb18cd)" style="fill: #eaf2fd; stroke: #b8c2c8; stroke-width: 0.8; stroke-linejoin: miter"/>
   </g>
   <g id="patch_30">
    <path d="M 104.643813 177.10952 
L 146.170482 177.10952 
Q 152.136958 177.10952 152.136958 175.116421 
L 152.136958 167.622369 
Q 152.136958 165.629271 146.170482 165.629271 
L 104.643813 165.629271 
Q 98.677338 165.629271 98.677338 167.622369 
L 98.677338 175.116421 
Q 98.677338 177.10952 104.643813 177.10952 
z
" clip-path="url(#p49d5fb18cd)" style="fill: #eaf2fd; stroke: #b8c2c8; stroke-width: 0.8; stroke-linejoin: miter"/>
   </g>
   <g id="patch_31">
    <path d="M 176.241519 177.10952 
L 217.768188 177.10952 
Q 223.734663 177.10952 223.734663 175.116421 
L 223.734663 167.622369 
Q 223.734663 165.629271 217.768188 165.629271 
L 176.241519 165.629271 
Q 170.275043 165.629271 170.275043 167.622369 
L 170.275043 175.116421 
Q 170.275043 177.10952 176.241519 177.10952 
z
" clip-path="url(#p49d5fb18cd)" style="fill: #fcedee; stroke: #b8c2c8; stroke-width: 0.8; stroke-linejoin: miter"/>
   </g>
   <g id="patch_32">
    <path d="M 42.592469 197.837747 
L 84.119138 197.837747 
Q 90.085613 197.837747 90.085613 195.844648 
L 90.085613 188.350597 
Q 90.085613 186.357498 84.119138 186.357498 
L 42.592469 186.357498 
Q 36.625994 186.357498 36.625994 188.350597 
L 36.625994 195.844648 
Q 36.625994 197.837747 42.592469 197.837747 
z
" clip-path="url(#p49d5fb18cd)" style="fill: #edf7ef; stroke: #b8c2c8; stroke-width: 0.8; stroke-linejoin: miter"/>
   </g>
   <g id="patch_33">
    <path d="M 104.643813 197.837747 
L 146.170482 197.837747 
Q 152.136958 197.837747 152.136958 195.844648 
L 152.136958 188.350597 
Q 152.136958 186.357498 146.170482 186.357498 
L 104.643813 186.357498 
Q 98.677338 186.357498 98.677338 188.350597 
L 98.677338 195.844648 
Q 98.677338 197.837747 104.643813 197.837747 
z
" clip-path="url(#p49d5fb18cd)" style="fill: #edf7ef; stroke: #b8c2c8; stroke-width: 0.8; stroke-linejoin: miter"/>
   </g>
   <g id="patch_34">
    <path d="M 176.241519 197.837747 
L 217.768188 197.837747 
Q 223.734663 197.837747 223.734663 195.844648 
L 223.734663 188.350597 
Q 223.734663 186.357498 217.768188 186.357498 
L 176.241519 186.357498 
Q 170.275043 186.357498 170.275043 188.350597 
L 170.275043 195.844648 
Q 170.275043 197.837747 176.241519 197.837747 
z
" clip-path="url(#p49d5fb18cd)" style="fill: #f6eff8; stroke: #b8c2c8; stroke-width: 0.8; stroke-linejoin: miter"/>
   </g>
   <g id="patch_35">
    <path d="M 42.592469 218.565974 
L 84.119138 218.565974 
Q 90.085613 218.565974 90.085613 216.572875 
L 90.085613 209.078824 
Q 90.085613 207.085725 84.119138 207.085725 
L 42.592469 207.085725 
Q 36.625994 207.085725 36.625994 209.078824 
L 36.625994 216.572875 
Q 36.625994 218.565974 42.592469 218.565974 
z
" clip-path="url(#p49d5fb18cd)" style="fill: #fff4e5; stroke: #b8c2c8; stroke-width: 0.8; stroke-linejoin: miter"/>
   </g>
   <g id="patch_36">
    <path d="M 104.643813 218.565974 
L 146.170482 218.565974 
Q 152.136958 218.565974 152.136958 216.572875 
L 152.136958 209.078824 
Q 152.136958 207.085725 146.170482 207.085725 
L 104.643813 207.085725 
Q 98.677338 207.085725 98.677338 209.078824 
L 98.677338 216.572875 
Q 98.677338 218.565974 104.643813 218.565974 
z
" clip-path="url(#p49d5fb18cd)" style="fill: #fff4e5; stroke: #b8c2c8; stroke-width: 0.8; stroke-linejoin: miter"/>
   </g>
   <g id="patch_37">
    <path d="M 176.241519 218.565974 
L 217.768188 218.565974 
Q 223.734663 218.565974 223.734663 216.572875 
L 223.734663 209.078824 
Q 223.734663 207.085725 217.768188 207.085725 
L 176.241519 207.085725 
Q 170.275043 207.085725 170.275043 209.078824 
L 170.275043 216.572875 
Q 170.275043 218.565974 176.241519 218.565974 
z
" clip-path="url(#p49d5fb18cd)" style="fill: #fcedee; stroke: #b8c2c8; stroke-width: 0.8; stroke-linejoin: miter"/>
   </g>
   <g id="matplotlib.axis_5"/>
   <g id="matplotlib.axis_6"/>
   <g id="text_19">
    <text style="fill: #263238; font: 700 10px 'Arial', 'Helvetica', 'Liberation Sans', 'DejaVu Sans', sans-serif; text-anchor: start" x="6.077639" y="148.667731" transform="rotate(-0 6.077639 148.667731)">C</text>
   </g>
   <g id="text_20">
    <text style="fill: #263238; font: 700 8.2px 'Arial', 'Helvetica', 'Liberation Sans', 'DejaVu Sans', sans-serif; text-anchor: start" x="34.716721" y="150.509803" transform="rotate(-0 34.716721 150.509803)">Potential leakage/confounding pathway</text>
   </g>
   <g id="text_21">
    <text style="fill: #263238; font: 6.4px 'Arial', 'Helvetica', 'Liberation Sans', 'DejaVu Sans', sans-serif; text-anchor: middle" x="63.355803" y="172.986395" transform="rotate(-0 63.355803 172.986395)">Donor identity</text>
   </g>
   <g id="text_22">
    <text style="fill: #263238; font: 6.4px 'Arial', 'Helvetica', 'Liberation Sans', 'DejaVu Sans', sans-serif; text-anchor: middle" x="125.407148" y="173.023895" transform="rotate(-0 125.407148 173.023895)">Repeated cells</text>
   </g>
   <g id="text_23">
    <text style="fill: #263238; font: 700 6.4px 'Arial', 'Helvetica', 'Liberation Sans', 'DejaVu Sans', sans-serif; text-anchor: middle" x="197.004853" y="173.028395" transform="rotate(-0 197.004853 173.028395)">Random-cell overlap</text>
   </g>
   <g id="text_24">
    <text style="fill: #263238; font: 6.4px 'Arial', 'Helvetica', 'Liberation Sans', 'DejaVu Sans', sans-serif; text-anchor: middle" x="63.355803" y="193.714622" transform="rotate(-0 63.355803 193.714622)">Dataset origin</text>
   </g>
   <g id="text_25">
    <text style="fill: #263238; font: 6.4px 'Arial', 'Helvetica', 'Liberation Sans', 'DejaVu Sans', sans-serif; text-anchor: middle" x="125.407148" y="193.753622" transform="rotate(-0 125.407148 193.753622)">Assay / cohort</text>
   </g>
   <g id="text_26">
    <text style="fill: #263238; font: 6.4px 'Arial', 'Helvetica', 'Liberation Sans', 'DejaVu Sans', sans-serif; text-anchor: middle" x="197.004853" y="193.714622" transform="rotate(-0 197.004853 193.714622)">Embedding structure</text>
   </g>
   <g id="text_27">
    <text style="fill: #263238; font: 6.4px 'Arial', 'Helvetica', 'Liberation Sans', 'DejaVu Sans', sans-serif; text-anchor: middle" x="63.355803" y="214.480349" transform="rotate(-0 63.355803 214.480349)">Disease / sex</text>
   </g>
   <g id="text_28">
    <text style="fill: #263238; font: 6.4px 'Arial', 'Helvetica', 'Liberation Sans', 'DejaVu Sans', sans-serif; text-anchor: middle" x="125.407148" y="214.480349" transform="rotate(-0 125.407148 214.480349)">Metadata labels</text>
   </g>
   <g id="text_29">
    <text style="fill: #263238; font: 700 6.4px 'Arial', 'Helvetica', 'Liberation Sans', 'DejaVu Sans', sans-serif; text-anchor: middle" x="197.004853" y="214.442849" transform="rotate(-0 197.004853 214.442849)">Apparent age prediction</text>
   </g>
   <g id="patch_38">
    <path d="M 89.224903 171.369395 
Q 94.383274 171.369395 98.423611 171.369395 
" style="fill: none; stroke: #d65f5f; stroke-linecap: round"/>
    <path d="M 95.543611 169.929395 
L 98.423611 171.369395 
L 95.543611 172.809395 
z
" style="fill: #d65f5f; stroke: #d65f5f; stroke-linecap: round"/>
   </g>
   <g id="patch_39">
    <path d="M 151.274499 171.369395 
Q 161.207185 171.369395 170.021836 171.369395 
" style="fill: none; stroke-dasharray: 3.7,1.6; stroke-dashoffset: 0; stroke: #d65f5f; stroke-linecap: round"/>
    <path d="M 167.141836 169.929395 
L 170.021836 171.369395 
L 167.141836 172.809395 
z
" style="fill: #d65f5f; stroke-dasharray: 3.7,1.6; stroke-dashoffset: 0; stroke: #d65f5f; stroke-linecap: round"/>
   </g>
   <g id="patch_40">
    <path d="M 89.224903 192.097622 
Q 94.383274 192.097622 98.423611 192.097622 
" style="fill: none; stroke: #d65f5f; stroke-linecap: round"/>
    <path d="M 95.543611 190.657622 
L 98.423611 192.097622 
L 95.543611 193.537622 
z
" style="fill: #d65f5f; stroke: #d65f5f; stroke-linecap: round"/>
   </g>
   <g id="patch_41">
    <path d="M 151.274499 192.097622 
Q 161.207185 192.097622 170.021836 192.097622 
" style="fill: none; stroke-dasharray: 3.7,1.6; stroke-dashoffset: 0; stroke: #d65f5f; stroke-linecap: round"/>
    <path d="M 167.141836 190.657622 
L 170.021836 192.097622 
L 167.141836 193.537622 
z
" style="fill: #d65f5f; stroke-dasharray: 3.7,1.6; stroke-dashoffset: 0; stroke: #d65f5f; stroke-linecap: round"/>
   </g>
   <g id="patch_42">
    <path d="M 219.038278 192.893402 
Q 197.006097 202.461196 175.999426 211.583647 
" style="fill: none; stroke-dasharray: 3.7,1.6; stroke-dashoffset: 0; stroke: #d65f5f; stroke-linecap: round"/>
    <path d="M 179.214678 211.757298 
L 175.999426 211.583647 
L 178.067498 209.115636 
z
" style="fill: #d65f5f; stroke-dasharray: 3.7,1.6; stroke-dashoffset: 0; stroke: #d65f5f; stroke-linecap: round"/>
   </g>
   <g id="patch_43">
    <path d="M 89.224903 212.825849 
Q 94.383274 212.825849 98.423611 212.825849 
" style="fill: none; stroke: #d65f5f; stroke-linecap: round"/>
    <path d="M 95.543611 211.385849 
L 98.423611 212.825849 
L 95.543611 214.265849 
z
" style="fill: #d65f5f; stroke: #d65f5f; stroke-linecap: round"/>
   </g>
   <g id="patch_44">
    <path d="M 151.274499 212.825849 
Q 161.207185 212.825849 170.021836 212.825849 
" style="fill: none; stroke-dasharray: 3.7,1.6; stroke-dashoffset: 0; stroke: #d65f5f; stroke-linecap: round"/>
    <path d="M 167.141836 211.385849 
L 170.021836 212.825849 
L 167.141836 214.265849 
z
" style="fill: #d65f5f; stroke-dasharray: 3.7,1.6; stroke-dashoffset: 0; stroke: #d65f5f; stroke-linecap: round"/>
   </g>
   <g id="text_30">
    <text style="fill: #d65f5f; font: 6.2px 'Arial', 'Helvetica', 'Liberation Sans', 'DejaVu Sans', sans-serif; text-anchor: start" x="20.39718" y="231.959597" transform="rotate(-0 20.39718 231.959597)">Dashed arrows mark audit targets, not proven causal mechanisms.</text>
   </g>
  </g>
  <g id="axes_4">
   <g id="patch_45">
    <path d="M 283.211383 233.554076 
L 521.8704 233.554076 
L 521.8704 153.830126 
L 283.211383 153.830126 
z
" style="fill: #ffffff"/>
   </g>
   <g id="patch_46">
    <path d="M 301.110809 183.726607 
C 302.693137 183.726607 304.21087 183.516602 305.329744 183.142842 
C 306.448619 182.769083 307.077285 182.262085 307.077285 181.733509 
C 307.077285 181.204933 306.448619 180.697935 305.329744 180.324175 
C 304.21087 179.950415 302.693137 179.74041 301.110809 179.74041 
C 299.528481 179.74041 298.010749 179.950415 296.891874 180.324175 
C 295.772999 180.697935 295.144334 181.204933 295.144334 181.733509 
C 295.144334 182.262085 295.772999 182.769083 296.891874 183.142842 
C 298.010749 183.516602 299.528481 183.726607 301.110809 183.726607 
z
" clip-path="url(#p35e723d846)" style="fill: #72b7b2; stroke: #ffffff; stroke-width: 0.4; stroke-linejoin: miter"/>
   </g>
   <g id="patch_47">
    <path d="M 314.237055 183.726607 
C 315.819383 183.726607 317.337116 183.516602 318.45599 183.142842 
C 319.574865 182.769083 320.203531 182.262085 320.203531 181.733509 
C 320.203531 181.204933 319.574865 180.697935 318.45599 180.324175 
C 317.337116 179.950415 315.819383 179.74041 314.237055 179.74041 
C 312.654727 179.74041 311.136995 179.950415 310.01812 180.324175 
C 308.899245 180.697935 308.27058 181.204933 308.27058 181.733509 
C 308.27058 182.262085 308.899245 182.769083 310.01812 183.142842 
C 311.136995 183.516602 312.654727 183.726607 314.237055 183.726607 
z
" clip-path="url(#p35e723d846)" style="fill: #72b7b2; stroke: #ffffff; stroke-width: 0.4; stroke-linejoin: miter"/>
   </g>
   <g id="patch_48">
    <path d="M 327.363301 183.726607 
C 328.945629 183.726607 330.463362 183.516602 331.582236 183.142842 
C 332.701111 182.769083 333.329776 182.262085 333.329776 181.733509 
C 333.329776 181.204933 332.701111 180.697935 331.582236 180.324175 
C 330.463362 179.950415 328.945629 179.74041 327.363301 179.74041 
C 325.780973 179.74041 324.26324 179.950415 323.144366 180.324175 
C 322.025491 180.697935 321.396826 181.204933 321.396826 181.733509 
C 321.396826 182.262085 322.025491 182.769083 323.144366 183.142842 
C 324.26324 183.516602 325.780973 183.726607 327.363301 183.726607 
z
" clip-path="url(#p35e723d846)" style="fill: #72b7b2; stroke: #ffffff; stroke-width: 0.4; stroke-linejoin: miter"/>
   </g>
   <g id="patch_49">
    <path d="M 301.110809 196.48244 
C 302.693137 196.48244 304.21087 196.272434 305.329744 195.898674 
C 306.448619 195.524915 307.077285 195.017917 307.077285 194.489341 
C 307.077285 193.960765 306.448619 193.453767 305.329744 193.080007 
C 304.21087 192.706247 302.693137 192.496242 301.110809 192.496242 
C 299.528481 192.496242 298.010749 192.706247 296.891874 193.080007 
C 295.772999 193.453767 295.144334 193.960765 295.144334 194.489341 
C 295.144334 195.017917 295.772999 195.524915 296.891874 195.898674 
C 298.010749 196.272434 299.528481 196.48244 301.110809 196.48244 
z
" clip-path="url(#p35e723d846)" style="fill: #72b7b2; stroke: #ffffff; stroke-width: 0.4; stroke-linejoin: miter"/>
   </g>
   <g id="patch_50">
    <path d="M 314.237055 194.489341 
C 315.819383 194.489341 317.337116 194.279335 318.45599 193.905576 
C 319.574865 193.531816 320.203531 193.024818 320.203531 192.496242 
C 320.203531 191.967666 319.574865 191.460668 318.45599 191.086908 
C 317.337116 190.713149 315.819383 190.503143 314.237055 190.503143 
C 312.654727 190.503143 311.136995 190.713149 310.01812 191.086908 
C 308.899245 191.460668 308.27058 191.967666 308.27058 192.496242 
C 308.27058 193.024818 308.899245 193.531816 310.01812 193.905576 
C 311.136995 194.279335 312.654727 194.489341 314.237055 194.489341 
z
" clip-path="url(#p35e723d846)" style="fill: #f58518; stroke: #ffffff; stroke-width: 0.4; stroke-linejoin: miter"/>
   </g>
   <g id="patch_51">
    <path d="M 327.363301 196.48244 
C 328.945629 196.48244 330.463362 196.272434 331.582236 195.898674 
C 332.701111 195.524915 333.329776 195.017917 333.329776 194.489341 
C 333.329776 193.960765 332.701111 193.453767 331.582236 193.080007 
C 330.463362 192.706247 328.945629 192.496242 327.363301 192.496242 
C 325.780973 192.496242 324.26324 192.706247 323.144366 193.080007 
C 322.025491 193.453767 321.396826 193.960765 321.396826 194.489341 
C 321.396826 195.017917 322.025491 195.524915 323.144366 195.898674 
C 324.26324 196.272434 325.780973 196.48244 327.363301 196.48244 
z
" clip-path="url(#p35e723d846)" style="fill: #72b7b2; stroke: #ffffff; stroke-width: 0.4; stroke-linejoin: miter"/>
   </g>
   <g id="patch_52">
    <path d="M 301.110809 209.238272 
C 302.693137 209.238272 304.21087 209.028266 305.329744 208.654506 
C 306.448619 208.280747 307.077285 207.773749 307.077285 207.245173 
C 307.077285 206.716597 306.448619 206.209599 305.329744 205.835839 
C 304.21087 205.46208 302.693137 205.252074 301.110809 205.252074 
C 299.528481 205.252074 298.010749 205.46208 296.891874 205.835839 
C 295.772999 206.209599 295.144334 206.716597 295.144334 207.245173 
C 295.144334 207.773749 295.772999 208.280747 296.891874 208.654506 
C 298.010749 209.028266 299.528481 209.238272 301.110809 209.238272 
z
" clip-path="url(#p35e723d846)" style="fill: #72b7b2; stroke: #ffffff; stroke-width: 0.4; stroke-linejoin: miter"/>
   </g>
   <g id="patch_53">
    <path d="M 314.237055 209.238272 
C 315.819383 209.238272 317.337116 209.028266 318.45599 208.654506 
C 319.574865 208.280747 320.203531 207.773749 320.203531 207.245173 
C 320.203531 206.716597 319.574865 206.209599 318.45599 205.835839 
C 317.337116 205.46208 315.819383 205.252074 314.237055 205.252074 
C 312.654727 205.252074 311.136995 205.46208 310.01812 205.835839 
C 308.899245 206.209599 308.27058 206.716597 308.27058 207.245173 
C 308.27058 207.773749 308.899245 208.280747 310.01812 208.654506 
C 311.136995 209.028266 312.654727 209.238272 314.237055 209.238272 
z
" clip-path="url(#p35e723d846)" style="fill: #72b7b2; stroke: #ffffff; stroke-width: 0.4; stroke-linejoin: miter"/>
   </g>
   <g id="patch_54">
    <path d="M 327.363301 209.238272 
C 328.945629 209.238272 330.463362 209.028266 331.582236 208.654506 
C 332.701111 208.280747 333.329776 207.773749 333.329776 207.245173 
C 333.329776 206.716597 332.701111 206.209599 331.582236 205.835839 
C 330.463362 205.46208 328.945629 205.252074 327.363301 205.252074 
C 325.780973 205.252074 324.26324 205.46208 323.144366 205.835839 
C 322.025491 206.209599 321.396826 206.716597 321.396826 207.245173 
C 321.396826 207.773749 322.025491 208.280747 323.144366 208.654506 
C 324.26324 209.028266 325.780973 209.238272 327.363301 209.238272 
z
" clip-path="url(#p35e723d846)" style="fill: #f58518; stroke: #ffffff; stroke-width: 0.4; stroke-linejoin: miter"/>
   </g>
   <g id="patch_55">
    <path d="M 360.775563 183.726607 
C 362.357891 183.726607 363.875624 183.516602 364.994499 183.142842 
C 366.113373 182.769083 366.742039 182.262085 366.742039 181.733509 
C 366.742039 181.204933 366.113373 180.697935 364.994499 180.324175 
C 363.875624 179.950415 362.357891 179.74041 360.775563 179.74041 
C 359.193236 179.74041 357.675503 179.950415 356.556628 180.324175 
C 355.437753 180.697935 354.809088 181.204933 354.809088 181.733509 
C 354.809088 182.262085 355.437753 182.769083 356.556628 183.142842 
C 357.675503 183.516602 359.193236 183.726607 360.775563 183.726607 
z
" clip-path="url(#p35e723d846)" style="fill: #72b7b2; stroke: #ffffff; stroke-width: 0.4; stroke-linejoin: miter"/>
   </g>
   <g id="patch_56">
    <path d="M 373.901809 183.726607 
C 375.484137 183.726607 377.00187 183.516602 378.120745 183.142842 
C 379.239619 182.769083 379.868285 182.262085 379.868285 181.733509 
C 379.868285 181.204933 379.239619 180.697935 378.120745 180.324175 
C 377.00187 179.950415 375.484137 179.74041 373.901809 179.74041 
C 372.319482 179.74041 370.801749 179.950415 369.682874 180.324175 
C 368.563999 180.697935 367.935334 181.204933 367.935334 181.733509 
C 367.935334 182.262085 368.563999 182.769083 369.682874 183.142842 
C 370.801749 183.516602 372.319482 183.726607 373.901809 183.726607 
z
" clip-path="url(#p35e723d846)" style="fill: #72b7b2; stroke: #ffffff; stroke-width: 0.4; stroke-linejoin: miter"/>
   </g>
   <g id="patch_57">
    <path d="M 387.028055 183.726607 
C 388.610383 183.726607 390.128116 183.516602 391.246991 183.142842 
C 392.365865 182.769083 392.994531 182.262085 392.994531 181.733509 
C 392.994531 181.204933 392.365865 180.697935 391.246991 180.324175 
C 390.128116 179.950415 388.610383 179.74041 387.028055 179.74041 
C 385.445728 179.74041 383.927995 179.950415 382.80912 180.324175 
C 381.690245 180.697935 381.06158 181.204933 381.06158 181.733509 
C 381.06158 182.262085 381.690245 182.769083 382.80912 183.142842 
C 383.927995 183.516602 385.445728 183.726607 387.028055 183.726607 
z
" clip-path="url(#p35e723d846)" style="fill: #72b7b2; stroke: #ffffff; stroke-width: 0.4; stroke-linejoin: miter"/>
   </g>
   <g id="patch_58">
    <path d="M 360.775563 196.48244 
C 362.357891 196.48244 363.875624 196.272434 364.994499 195.898674 
C 366.113373 195.524915 366.742039 195.017917 366.742039 194.489341 
C 366.742039 193.960765 366.113373 193.453767 364.994499 193.080007 
C 363.875624 192.706247 362.357891 192.496242 360.775563 192.496242 
C 359.193236 192.496242 357.675503 192.706247 356.556628 193.080007 
C 355.437753 193.453767 354.809088 193.960765 354.809088 194.489341 
C 354.809088 195.017917 355.437753 195.524915 356.556628 195.898674 
C 357.675503 196.272434 359.193236 196.48244 360.775563 196.48244 
z
" clip-path="url(#p35e723d846)" style="fill: #72b7b2; stroke: #ffffff; stroke-width: 0.4; stroke-linejoin: miter"/>
   </g>
   <g id="patch_59">
    <path d="M 373.901809 196.48244 
C 375.484137 196.48244 377.00187 196.272434 378.120745 195.898674 
C 379.239619 195.524915 379.868285 195.017917 379.868285 194.489341 
C 379.868285 193.960765 379.239619 193.453767 378.120745 193.080007 
C 377.00187 192.706247 375.484137 192.496242 373.901809 192.496242 
C 372.319482 192.496242 370.801749 192.706247 369.682874 193.080007 
C 368.563999 193.453767 367.935334 193.960765 367.935334 194.489341 
C 367.935334 195.017917 368.563999 195.524915 369.682874 195.898674 
C 370.801749 196.272434 372.319482 196.48244 373.901809 196.48244 
z
" clip-path="url(#p35e723d846)" style="fill: #72b7b2; stroke: #ffffff; stroke-width: 0.4; stroke-linejoin: miter"/>
   </g>
   <g id="patch_60">
    <path d="M 387.028055 196.48244 
C 388.610383 196.48244 390.128116 196.272434 391.246991 195.898674 
C 392.365865 195.524915 392.994531 195.017917 392.994531 194.489341 
C 392.994531 193.960765 392.365865 193.453767 391.246991 193.080007 
C 390.128116 192.706247 388.610383 192.496242 387.028055 192.496242 
C 385.445728 192.496242 383.927995 192.706247 382.80912 193.080007 
C 381.690245 193.453767 381.06158 193.960765 381.06158 194.489341 
C 381.06158 195.017917 381.690245 195.524915 382.80912 195.898674 
C 383.927995 196.272434 385.445728 196.48244 387.028055 196.48244 
z
" clip-path="url(#p35e723d846)" style="fill: #72b7b2; stroke: #ffffff; stroke-width: 0.4; stroke-linejoin: miter"/>
   </g>
   <g id="patch_61">
    <path d="M 360.775563 209.238272 
C 362.357891 209.238272 363.875624 209.028266 364.994499 208.654506 
C 366.113373 208.280747 366.742039 207.773749 366.742039 207.245173 
C 366.742039 206.716597 366.113373 206.209599 364.994499 205.835839 
C 363.875624 205.46208 362.357891 205.252074 360.775563 205.252074 
C 359.193236 205.252074 357.675503 205.46208 356.556628 205.835839 
C 355.437753 206.209599 354.809088 206.716597 354.809088 207.245173 
C 354.809088 207.773749 355.437753 208.280747 356.556628 208.654506 
C 357.675503 209.028266 359.193236 209.238272 360.775563 209.238272 
z
" clip-path="url(#p35e723d846)" style="fill: #72b7b2; stroke: #ffffff; stroke-width: 0.4; stroke-linejoin: miter"/>
   </g>
   <g id="patch_62">
    <path d="M 373.901809 209.238272 
C 375.484137 209.238272 377.00187 209.028266 378.120745 208.654506 
C 379.239619 208.280747 379.868285 207.773749 379.868285 207.245173 
C 379.868285 206.716597 379.239619 206.209599 378.120745 205.835839 
C 377.00187 205.46208 375.484137 205.252074 373.901809 205.252074 
C 372.319482 205.252074 370.801749 205.46208 369.682874 205.835839 
C 368.563999 206.209599 367.935334 206.716597 367.935334 207.245173 
C 367.935334 207.773749 368.563999 208.280747 369.682874 208.654506 
C 370.801749 209.028266 372.319482 209.238272 373.901809 209.238272 
z
" clip-path="url(#p35e723d846)" style="fill: #72b7b2; stroke: #ffffff; stroke-width: 0.4; stroke-linejoin: miter"/>
   </g>
   <g id="patch_63">
    <path d="M 387.028055 209.238272 
C 388.610383 209.238272 390.128116 209.028266 391.246991 208.654506 
C 392.365865 208.280747 392.994531 207.773749 392.994531 207.245173 
C 392.994531 206.716597 392.365865 206.209599 391.246991 205.835839 
C 390.128116 205.46208 388.610383 205.252074 387.028055 205.252074 
C 385.445728 205.252074 383.927995 205.46208 382.80912 205.835839 
C 381.690245 206.209599 381.06158 206.716597 381.06158 207.245173 
C 381.06158 207.773749 381.690245 208.280747 382.80912 208.654506 
C 383.927995 209.028266 385.445728 209.238272 387.028055 209.238272 
z
" clip-path="url(#p35e723d846)" style="fill: #f58518; stroke: #ffffff; stroke-width: 0.4; stroke-linejoin: miter"/>
   </g>
   <g id="patch_64">
    <path d="M 420.440318 183.726607 
C 422.022645 183.726607 423.540378 183.516602 424.659253 183.142842 
C 425.778128 182.769083 426.406793 182.262085 426.406793 181.733509 
C 426.406793 181.204933 425.778128 180.697935 424.659253 180.324175 
C 423.540378 179.950415 422.022645 179.74041 420.440318 179.74041 
C 418.85799 179.74041 417.340257 179.950415 416.221382 180.324175 
C 415.102508 180.697935 414.473842 181.204933 414.473842 181.733509 
C 414.473842 182.262085 415.102508 182.769083 416.221382 183.142842 
C 417.340257 183.516602 418.85799 183.726607 420.440318 183.726607 
z
" clip-path="url(#p35e723d846)" style="fill: #72b7b2; stroke: #ffffff; stroke-width: 0.4; stroke-linejoin: miter"/>
   </g>
   <g id="patch_65">
    <path d="M 433.566564 183.726607 
C 435.148891 183.726607 436.666624 183.516602 437.785499 183.142842 
C 438.904374 182.769083 439.533039 182.262085 439.533039 181.733509 
C 439.533039 181.204933 438.904374 180.697935 437.785499 180.324175 
C 436.666624 179.950415 435.148891 179.74041 433.566564 179.74041 
C 431.984236 179.74041 430.466503 179.950415 429.347628 180.324175 
C 428.228754 180.697935 427.600088 181.204933 427.600088 181.733509 
C 427.600088 182.262085 428.228754 182.769083 429.347628 183.142842 
C 430.466503 183.516602 431.984236 183.726607 433.566564 183.726607 
z
" clip-path="url(#p35e723d846)" style="fill: #72b7b2; stroke: #ffffff; stroke-width: 0.4; stroke-linejoin: miter"/>
   </g>
   <g id="patch_66">
    <path d="M 446.69281 183.726607 
C 448.275137 183.726607 449.79287 183.516602 450.911745 183.142842 
C 452.03062 182.769083 452.659285 182.262085 452.659285 181.733509 
C 452.659285 181.204933 452.03062 180.697935 450.911745 180.324175 
C 449.79287 179.950415 448.275137 179.74041 446.69281 179.74041 
C 445.110482 179.74041 443.592749 179.950415 442.473874 180.324175 
C 441.355 180.697935 440.726334 181.204933 440.726334 181.733509 
C 440.726334 182.262085 441.355 182.769083 442.473874 183.142842 
C 443.592749 183.516602 445.110482 183.726607 446.69281 183.726607 
z
" clip-path="url(#p35e723d846)" style="fill: #f58518; stroke: #ffffff; stroke-width: 0.4; stroke-linejoin: miter"/>
   </g>
   <g id="patch_67">
    <path d="M 420.440318 196.48244 
C 422.022645 196.48244 423.540378 196.272434 424.659253 195.898674 
C 425.778128 195.524915 426.406793 195.017917 426.406793 194.489341 
C 426.406793 193.960765 425.778128 193.453767 424.659253 193.080007 
C 423.540378 192.706247 422.022645 192.496242 420.440318 192.496242 
C 418.85799 192.496242 417.340257 192.706247 416.221382 193.080007 
C 415.102508 193.453767 414.473842 193.960765 414.473842 194.489341 
C 414.473842 195.017917 415.102508 195.524915 416.221382 195.898674 
C 417.340257 196.272434 418.85799 196.48244 420.440318 196.48244 
z
" clip-path="url(#p35e723d846)" style="fill: #72b7b2; stroke: #ffffff; stroke-width: 0.4; stroke-linejoin: miter"/>
   </g>
   <g id="patch_68">
    <path d="M 433.566564 196.48244 
C 435.148891 196.48244 436.666624 196.272434 437.785499 195.898674 
C 438.904374 195.524915 439.533039 195.017917 439.533039 194.489341 
C 439.533039 193.960765 438.904374 193.453767 437.785499 193.080007 
C 436.666624 192.706247 435.148891 192.496242 433.566564 192.496242 
C 431.984236 192.496242 430.466503 192.706247 429.347628 193.080007 
C 428.228754 193.453767 427.600088 193.960765 427.600088 194.489341 
C 427.600088 195.017917 428.228754 195.524915 429.347628 195.898674 
C 430.466503 196.272434 431.984236 196.48244 433.566564 196.48244 
z
" clip-path="url(#p35e723d846)" style="fill: #72b7b2; stroke: #ffffff; stroke-width: 0.4; stroke-linejoin: miter"/>
   </g>
   <g id="patch_69">
    <path d="M 446.69281 196.48244 
C 448.275137 196.48244 449.79287 196.272434 450.911745 195.898674 
C 452.03062 195.524915 452.659285 195.017917 452.659285 194.489341 
C 452.659285 193.960765 452.03062 193.453767 450.911745 193.080007 
C 449.79287 192.706247 448.275137 192.496242 446.69281 192.496242 
C 445.110482 192.496242 443.592749 192.706247 442.473874 193.080007 
C 441.355 193.453767 440.726334 193.960765 440.726334 194.489341 
C 440.726334 195.017917 441.355 195.524915 442.473874 195.898674 
C 443.592749 196.272434 445.110482 196.48244 446.69281 196.48244 
z
" clip-path="url(#p35e723d846)" style="fill: #f58518; stroke: #ffffff; stroke-width: 0.4; stroke-linejoin: miter"/>
   </g>
   <g id="patch_70">
    <path d="M 420.440318 209.238272 
C 422.022645 209.238272 423.540378 209.028266 424.659253 208.654506 
C 425.778128 208.280747 426.406793 207.773749 426.406793 207.245173 
C 426.406793 206.716597 425.778128 206.209599 424.659253 205.835839 
C 423.540378 205.46208 422.022645 205.252074 420.440318 205.252074 
C 418.85799 205.252074 417.340257 205.46208 416.221382 205.835839 
C 415.102508 206.209599 414.473842 206.716597 414.473842 207.245173 
C 414.473842 207.773749 415.102508 208.280747 416.221382 208.654506 
C 417.340257 209.028266 418.85799 209.238272 420.440318 209.238272 
z
" clip-path="url(#p35e723d846)" style="fill: #72b7b2; stroke: #ffffff; stroke-width: 0.4; stroke-linejoin: miter"/>
   </g>
   <g id="patch_71">
    <path d="M 433.566564 209.238272 
C 435.148891 209.238272 436.666624 209.028266 437.785499 208.654506 
C 438.904374 208.280747 439.533039 207.773749 439.533039 207.245173 
C 439.533039 206.716597 438.904374 206.209599 437.785499 205.835839 
C 436.666624 205.46208 435.148891 205.252074 433.566564 205.252074 
C 431.984236 205.252074 430.466503 205.46208 429.347628 205.835839 
C 428.228754 206.209599 427.600088 206.716597 427.600088 207.245173 
C 427.600088 207.773749 428.228754 208.280747 429.347628 208.654506 
C 430.466503 209.028266 431.984236 209.238272 433.566564 209.238272 
z
" clip-path="url(#p35e723d846)" style="fill: #72b7b2; stroke: #ffffff; stroke-width: 0.4; stroke-linejoin: miter"/>
   </g>
   <g id="patch_72">
    <path d="M 446.69281 209.238272 
C 448.275137 209.238272 449.79287 209.028266 450.911745 208.654506 
C 452.03062 208.280747 452.659285 207.773749 452.659285 207.245173 
C 452.659285 206.716597 452.03062 206.209599 450.911745 205.835839 
C 449.79287 205.46208 448.275137 205.252074 446.69281 205.252074 
C 445.110482 205.252074 443.592749 205.46208 442.473874 205.835839 
C 441.355 206.209599 440.726334 206.716597 440.726334 207.245173 
C 440.726334 207.773749 441.355 208.280747 442.473874 208.654506 
C 443.592749 209.028266 445.110482 209.238272 446.69281 209.238272 
z
" clip-path="url(#p35e723d846)" style="fill: #f58518; stroke: #ffffff; stroke-width: 0.4; stroke-linejoin: miter"/>
   </g>
   <g id="patch_73">
    <path d="M 477.718482 183.726607 
C 479.30081 183.726607 480.818542 183.516602 481.937417 183.142842 
C 483.056292 182.769083 483.684957 182.262085 483.684957 181.733509 
C 483.684957 181.204933 483.056292 180.697935 481.937417 180.324175 
C 480.818542 179.950415 479.30081 179.74041 477.718482 179.74041 
C 476.136154 179.74041 474.618421 179.950415 473.499547 180.324175 
C 472.380672 180.697935 471.752006 181.204933 471.752006 181.733509 
C 471.752006 182.262085 472.380672 182.769083 473.499547 183.142842 
C 474.618421 183.516602 476.136154 183.726607 477.718482 183.726607 
z
" clip-path="url(#p35e723d846)" style="fill: #72b7b2; stroke: #ffffff; stroke-width: 0.4; stroke-linejoin: miter"/>
   </g>
   <g id="patch_74">
    <path d="M 490.844728 183.726607 
C 492.427056 183.726607 493.944788 183.516602 495.063663 183.142842 
C 496.182538 182.769083 496.811203 182.262085 496.811203 181.733509 
C 496.811203 181.204933 496.182538 180.697935 495.063663 180.324175 
C 493.944788 179.950415 492.427056 179.74041 490.844728 179.74041 
C 489.2624 179.74041 487.744667 179.950415 486.625793 180.324175 
C 485.506918 180.697935 484.878252 181.204933 484.878252 181.733509 
C 484.878252 182.262085 485.506918 182.769083 486.625793 183.142842 
C 487.744667 183.516602 489.2624 183.726607 490.844728 183.726607 
z
" clip-path="url(#p35e723d846)" style="fill: #72b7b2; stroke: #ffffff; stroke-width: 0.4; stroke-linejoin: miter"/>
   </g>
   <g id="patch_75">
    <path d="M 503.970974 183.726607 
C 505.553301 183.726607 507.071034 183.516602 508.189909 183.142842 
C 509.308784 182.769083 509.937449 182.262085 509.937449 181.733509 
C 509.937449 181.204933 509.308784 180.697935 508.189909 180.324175 
C 507.071034 179.950415 505.553301 179.74041 503.970974 179.74041 
C 502.388646 179.74041 500.870913 179.950415 499.752038 180.324175 
C 498.633164 180.697935 498.004498 181.204933 498.004498 181.733509 
C 498.004498 182.262085 498.633164 182.769083 499.752038 183.142842 
C 500.870913 183.516602 502.388646 183.726607 503.970974 183.726607 
z
" clip-path="url(#p35e723d846)" style="fill: #f58518; stroke: #ffffff; stroke-width: 0.4; stroke-linejoin: miter"/>
   </g>
   <g id="patch_76">
    <path d="M 477.718482 196.48244 
C 479.30081 196.48244 480.818542 196.272434 481.937417 195.898674 
C 483.056292 195.524915 483.684957 195.017917 483.684957 194.489341 
C 483.684957 193.960765 483.056292 193.453767 481.937417 193.080007 
C 480.818542 192.706247 479.30081 192.496242 477.718482 192.496242 
C 476.136154 192.496242 474.618421 192.706247 473.499547 193.080007 
C 472.380672 193.453767 471.752006 193.960765 471.752006 194.489341 
C 471.752006 195.017917 472.380672 195.524915 473.499547 195.898674 
C 474.618421 196.272434 476.136154 196.48244 477.718482 196.48244 
z
" clip-path="url(#p35e723d846)" style="fill: #72b7b2; stroke: #ffffff; stroke-width: 0.4; stroke-linejoin: miter"/>
   </g>
   <g id="patch_77">
    <path d="M 490.844728 196.48244 
C 492.427056 196.48244 493.944788 196.272434 495.063663 195.898674 
C 496.182538 195.524915 496.811203 195.017917 496.811203 194.489341 
C 496.811203 193.960765 496.182538 193.453767 495.063663 193.080007 
C 493.944788 192.706247 492.427056 192.496242 490.844728 192.496242 
C 489.2624 192.496242 487.744667 192.706247 486.625793 193.080007 
C 485.506918 193.453767 484.878252 193.960765 484.878252 194.489341 
C 484.878252 195.017917 485.506918 195.524915 486.625793 195.898674 
C 487.744667 196.272434 489.2624 196.48244 490.844728 196.48244 
z
" clip-path="url(#p35e723d846)" style="fill: #72b7b2; stroke: #ffffff; stroke-width: 0.4; stroke-linejoin: miter"/>
   </g>
   <g id="patch_78">
    <path d="M 503.970974 196.48244 
C 505.553301 196.48244 507.071034 196.272434 508.189909 195.898674 
C 509.308784 195.524915 509.937449 195.017917 509.937449 194.489341 
C 509.937449 193.960765 509.308784 193.453767 508.189909 193.080007 
C 507.071034 192.706247 505.553301 192.496242 503.970974 192.496242 
C 502.388646 192.496242 500.870913 192.706247 499.752038 193.080007 
C 498.633164 193.453767 498.004498 193.960765 498.004498 194.489341 
C 498.004498 195.017917 498.633164 195.524915 499.752038 195.898674 
C 500.870913 196.272434 502.388646 196.48244 503.970974 196.48244 
z
" clip-path="url(#p35e723d846)" style="fill: #f58518; stroke: #ffffff; stroke-width: 0.4; stroke-linejoin: miter"/>
   </g>
   <g id="patch_79">
    <path d="M 477.718482 209.238272 
C 479.30081 209.238272 480.818542 209.028266 481.937417 208.654506 
C 483.056292 208.280747 483.684957 207.773749 483.684957 207.245173 
C 483.684957 206.716597 483.056292 206.209599 481.937417 205.835839 
C 480.818542 205.46208 479.30081 205.252074 477.718482 205.252074 
C 476.136154 205.252074 474.618421 205.46208 473.499547 205.835839 
C 472.380672 206.209599 471.752006 206.716597 471.752006 207.245173 
C 471.752006 207.773749 472.380672 208.280747 473.499547 208.654506 
C 474.618421 209.028266 476.136154 209.238272 477.718482 209.238272 
z
" clip-path="url(#p35e723d846)" style="fill: #72b7b2; stroke: #ffffff; stroke-width: 0.4; stroke-linejoin: miter"/>
   </g>
   <g id="patch_80">
    <path d="M 490.844728 209.238272 
C 492.427056 209.238272 493.944788 209.028266 495.063663 208.654506 
C 496.182538 208.280747 496.811203 207.773749 496.811203 207.245173 
C 496.811203 206.716597 496.182538 206.209599 495.063663 205.835839 
C 493.944788 205.46208 492.427056 205.252074 490.844728 205.252074 
C 489.2624 205.252074 487.744667 205.46208 486.625793 205.835839 
C 485.506918 206.209599 484.878252 206.716597 484.878252 207.245173 
C 484.878252 207.773749 485.506918 208.280747 486.625793 208.654506 
C 487.744667 209.028266 489.2624 209.238272 490.844728 209.238272 
z
" clip-path="url(#p35e723d846)" style="fill: #72b7b2; stroke: #ffffff; stroke-width: 0.4; stroke-linejoin: miter"/>
   </g>
   <g id="patch_81">
    <path d="M 503.970974 209.238272 
C 505.553301 209.238272 507.071034 209.028266 508.189909 208.654506 
C 509.308784 208.280747 509.937449 207.773749 509.937449 207.245173 
C 509.937449 206.716597 509.308784 206.209599 508.189909 205.835839 
C 507.071034 205.46208 505.553301 205.252074 503.970974 205.252074 
C 502.388646 205.252074 500.870913 205.46208 499.752038 205.835839 
C 498.633164 206.209599 498.004498 206.716597 498.004498 207.245173 
C 498.004498 207.773749 498.633164 208.280747 499.752038 208.654506 
C 500.870913 209.028266 502.388646 209.238272 503.970974 209.238272 
z
" clip-path="url(#p35e723d846)" style="fill: #f58518; stroke: #ffffff; stroke-width: 0.4; stroke-linejoin: miter"/>
   </g>
   <g id="matplotlib.axis_7"/>
   <g id="matplotlib.axis_8"/>
   <g id="text_31">
    <text style="fill: #263238; font: 700 10px 'Arial', 'Helvetica', 'Liberation Sans', 'DejaVu Sans', sans-serif; text-anchor: start" x="273.665022" y="148.667731" transform="rotate(-0 273.665022 148.667731)">D</text>
   </g>
   <g id="text_32">
    <text style="fill: #263238; font: 700 8.2px 'Arial', 'Helvetica', 'Liberation Sans', 'DejaVu Sans', sans-serif; text-anchor: start" x="302.304104" y="150.509803" transform="rotate(-0 302.304104 150.509803)">Validation strategies</text>
   </g>
   <g id="text_33">
    <text style="fill: #263238; font: 700 6.7px 'Arial', 'Helvetica', 'Liberation Sans', 'DejaVu Sans', sans-serif; text-anchor: middle" x="314.237055" y="169.787213" transform="rotate(-0 314.237055 169.787213)">Random-cell</text>
   </g>
   <g id="text_34">
    <text style="fill: #72b7b2; font: 6px 'Arial', 'Helvetica', 'Liberation Sans', 'DejaVu Sans', sans-serif; text-anchor: middle" x="298.724219" y="227.17616" transform="rotate(-0 298.724219 227.17616)">train</text>
   </g>
   <g id="text_35">
    <text style="fill: #f58518; font: 6px 'Arial', 'Helvetica', 'Liberation Sans', 'DejaVu Sans', sans-serif; text-anchor: middle" x="329.749891" y="227.17616" transform="rotate(-0 329.749891 227.17616)">test</text>
   </g>
   <g id="text_36">
    <text style="fill: #d65f5f; font: 6px 'Arial', 'Helvetica', 'Liberation Sans', 'DejaVu Sans', sans-serif" transform="translate(304.732211 218.34388)">identity</text>
    <text style="fill: #d65f5f; font: 6px 'Arial', 'Helvetica', 'Liberation Sans', 'DejaVu Sans', sans-serif" transform="translate(309.571586 224.760317)">risk</text>
   </g>
   <g id="text_37">
    <text style="fill: #263238; font: 700 6.7px 'Arial', 'Helvetica', 'Liberation Sans', 'DejaVu Sans', sans-serif; text-anchor: middle" x="373.901809" y="169.787213" transform="rotate(-0 373.901809 169.787213)">Donor-holdout</text>
   </g>
   <g id="text_38">
    <text style="fill: #72b7b2; font: 6px 'Arial', 'Helvetica', 'Liberation Sans', 'DejaVu Sans', sans-serif; text-anchor: middle" x="358.388973" y="227.17616" transform="rotate(-0 358.388973 227.17616)">train</text>
   </g>
   <g id="text_39">
    <text style="fill: #f58518; font: 6px 'Arial', 'Helvetica', 'Liberation Sans', 'DejaVu Sans', sans-serif; text-anchor: middle" x="389.414645" y="227.17616" transform="rotate(-0 389.414645 227.17616)">test</text>
   </g>
   <g id="text_40">
    <text style="fill: #263238; font: 700 6.7px 'Arial', 'Helvetica', 'Liberation Sans', 'DejaVu Sans', sans-serif; text-anchor: middle" x="433.566564" y="169.787213" transform="rotate(-0 433.566564 169.787213)">Dataset-holdout</text>
   </g>
   <g id="text_41">
    <text style="fill: #72b7b2; font: 6px 'Arial', 'Helvetica', 'Liberation Sans', 'DejaVu Sans', sans-serif; text-anchor: middle" x="418.053728" y="227.17616" transform="rotate(-0 418.053728 227.17616)">train</text>
   </g>
   <g id="text_42">
    <text style="fill: #f58518; font: 6px 'Arial', 'Helvetica', 'Liberation Sans', 'DejaVu Sans', sans-serif; text-anchor: middle" x="449.0794" y="227.17616" transform="rotate(-0 449.0794 227.17616)">test</text>
   </g>
   <g id="text_43">
    <text style="fill: #263238; font: 700 6.7px 'Arial', 'Helvetica', 'Liberation Sans', 'DejaVu Sans', sans-serif" transform="translate(481.167939 169.787213)">LODO</text>
    <text style="fill: #263238; font: 700 6.7px 'Arial', 'Helvetica', 'Liberation Sans', 'DejaVu Sans', sans-serif" transform="translate(462.368681 176.864298)">limited diagnostic</text>
   </g>
   <g id="text_44">
    <text style="fill: #72b7b2; font: 6px 'Arial', 'Helvetica', 'Liberation Sans', 'DejaVu Sans', sans-serif; text-anchor: middle" x="475.331892" y="227.17616" transform="rotate(-0 475.331892 227.17616)">train</text>
   </g>
   <g id="text_45">
    <text style="fill: #f58518; font: 6px 'Arial', 'Helvetica', 'Liberation Sans', 'DejaVu Sans', sans-serif; text-anchor: middle" x="506.357564" y="227.17616" transform="rotate(-0 506.357564 227.17616)">test</text>
   </g>
  </g>
  <g id="axes_5">
   <g id="patch_82">
    <path d="M 15.624 361.8432 
L 254.283017 361.8432 
L 254.283017 278.133052 
L 15.624 278.133052 
z
" style="fill: #ffffff"/>
   </g>
   <g id="patch_83">
    <path d="M 25.886338 295.879603 
L 81.732548 295.879603 
Q 87.699023 295.879603 87.699023 293.78685 
L 87.699023 289.266502 
Q 87.699023 287.173748 81.732548 287.173748 
L 25.886338 287.173748 
Q 19.919862 287.173748 19.919862 289.266502 
L 19.919862 293.78685 
Q 19.919862 295.879603 25.886338 295.879603 
z
" clip-path="url(#p7011d97b38)" style="fill: #fcedee; stroke: #f1b7b7; stroke-width: 0.8; stroke-linejoin: miter"/>
   </g>
   <g id="patch_84">
    <path d="M 114.190174 295.879603 
L 167.649794 295.879603 
Q 173.616269 295.879603 173.616269 293.78685 
L 173.616269 289.266502 
Q 173.616269 287.173748 167.649794 287.173748 
L 114.190174 287.173748 
Q 108.223699 287.173748 108.223699 289.266502 
L 108.223699 293.78685 
Q 108.223699 295.879603 114.190174 295.879603 
z
" clip-path="url(#p7011d97b38)" style="fill: #eef3f8; stroke: #b8c2c8; stroke-width: 0.8; stroke-linejoin: miter"/>
   </g>
   <g id="patch_85">
    <path d="M 197.72083 295.879603 
L 241.634089 295.879603 
Q 247.600565 295.879603 247.600565 293.78685 
L 247.600565 289.266502 
Q 247.600565 287.173748 241.634089 287.173748 
L 197.72083 287.173748 
Q 191.754355 287.173748 191.754355 289.266502 
L 191.754355 293.78685 
Q 191.754355 295.879603 197.72083 295.879603 
z
" clip-path="url(#p7011d97b38)" style="fill: #eef7f4; stroke: #b8d8c8; stroke-width: 0.8; stroke-linejoin: miter"/>
   </g>
   <g id="patch_86">
    <path d="M 25.886338 307.180473 
L 81.732548 307.180473 
Q 87.699023 307.180473 87.699023 305.08772 
L 87.699023 300.567372 
Q 87.699023 298.474618 81.732548 298.474618 
L 25.886338 298.474618 
Q 19.919862 298.474618 19.919862 300.567372 
L 19.919862 305.08772 
Q 19.919862 307.180473 25.886338 307.180473 
z
" clip-path="url(#p7011d97b38)" style="fill: #fcedee; stroke: #f1b7b7; stroke-width: 0.8; stroke-linejoin: miter"/>
   </g>
   <g id="patch_87">
    <path d="M 114.190174 307.180473 
L 167.649794 307.180473 
Q 173.616269 307.180473 173.616269 305.08772 
L 173.616269 300.567372 
Q 173.616269 298.474618 167.649794 298.474618 
L 114.190174 298.474618 
Q 108.223699 298.474618 108.223699 300.567372 
L 108.223699 305.08772 
Q 108.223699 307.180473 114.190174 307.180473 
z
" clip-path="url(#p7011d97b38)" style="fill: #eef3f8; stroke: #b8c2c8; stroke-width: 0.8; stroke-linejoin: miter"/>
   </g>
   <g id="patch_88">
    <path d="M 197.72083 307.180473 
L 241.634089 307.180473 
Q 247.600565 307.180473 247.600565 305.08772 
L 247.600565 300.567372 
Q 247.600565 298.474618 241.634089 298.474618 
L 197.72083 298.474618 
Q 191.754355 298.474618 191.754355 300.567372 
L 191.754355 305.08772 
Q 191.754355 307.180473 197.72083 307.180473 
z
" clip-path="url(#p7011d97b38)" style="fill: #eef7f4; stroke: #b8d8c8; stroke-width: 0.8; stroke-linejoin: miter"/>
   </g>
   <g id="patch_89">
    <path d="M 25.886338 318.481343 
L 81.732548 318.481343 
Q 87.699023 318.481343 87.699023 316.38859 
L 87.699023 311.868242 
Q 87.699023 309.775488 81.732548 309.775488 
L 25.886338 309.775488 
Q 19.919862 309.775488 19.919862 311.868242 
L 19.919862 316.38859 
Q 19.919862 318.481343 25.886338 318.481343 
z
" clip-path="url(#p7011d97b38)" style="fill: #fcedee; stroke: #f1b7b7; stroke-width: 0.8; stroke-linejoin: miter"/>
   </g>
   <g id="patch_90">
    <path d="M 114.190174 318.481343 
L 167.649794 318.481343 
Q 173.616269 318.481343 173.616269 316.38859 
L 173.616269 311.868242 
Q 173.616269 309.775488 167.649794 309.775488 
L 114.190174 309.775488 
Q 108.223699 309.775488 108.223699 311.868242 
L 108.223699 316.38859 
Q 108.223699 318.481343 114.190174 318.481343 
z
" clip-path="url(#p7011d97b38)" style="fill: #eef3f8; stroke: #b8c2c8; stroke-width: 0.8; stroke-linejoin: miter"/>
   </g>
   <g id="patch_91">
    <path d="M 197.72083 318.481343 
L 241.634089 318.481343 
Q 247.600565 318.481343 247.600565 316.38859 
L 247.600565 311.868242 
Q 247.600565 309.775488 241.634089 309.775488 
L 197.72083 309.775488 
Q 191.754355 309.775488 191.754355 311.868242 
L 191.754355 316.38859 
Q 191.754355 318.481343 197.72083 318.481343 
z
" clip-path="url(#p7011d97b38)" style="fill: #eef7f4; stroke: #b8d8c8; stroke-width: 0.8; stroke-linejoin: miter"/>
   </g>
   <g id="patch_92">
    <path d="M 25.886338 329.782213 
L 81.732548 329.782213 
Q 87.699023 329.782213 87.699023 327.68946 
L 87.699023 323.169112 
Q 87.699023 321.076358 81.732548 321.076358 
L 25.886338 321.076358 
Q 19.919862 321.076358 19.919862 323.169112 
L 19.919862 327.68946 
Q 19.919862 329.782213 25.886338 329.782213 
z
" clip-path="url(#p7011d97b38)" style="fill: #fcedee; stroke: #f1b7b7; stroke-width: 0.8; stroke-linejoin: miter"/>
   </g>
   <g id="patch_93">
    <path d="M 114.190174 329.782213 
L 167.649794 329.782213 
Q 173.616269 329.782213 173.616269 327.68946 
L 173.616269 323.169112 
Q 173.616269 321.076358 167.649794 321.076358 
L 114.190174 321.076358 
Q 108.223699 321.076358 108.223699 323.169112 
L 108.223699 327.68946 
Q 108.223699 329.782213 114.190174 329.782213 
z
" clip-path="url(#p7011d97b38)" style="fill: #eef3f8; stroke: #b8c2c8; stroke-width: 0.8; stroke-linejoin: miter"/>
   </g>
   <g id="patch_94">
    <path d="M 197.72083 329.782213 
L 241.634089 329.782213 
Q 247.600565 329.782213 247.600565 327.68946 
L 247.600565 323.169112 
Q 247.600565 321.076358 241.634089 321.076358 
L 197.72083 321.076358 
Q 191.754355 321.076358 191.754355 323.169112 
L 191.754355 327.68946 
Q 191.754355 329.782213 197.72083 329.782213 
z
" clip-path="url(#p7011d97b38)" style="fill: #eef7f4; stroke: #b8d8c8; stroke-width: 0.8; stroke-linejoin: miter"/>
   </g>
   <g id="patch_95">
    <path d="M 25.886338 341.083083 
L 81.732548 341.083083 
Q 87.699023 341.083083 87.699023 338.99033 
L 87.699023 334.469982 
Q 87.699023 332.377228 81.732548 332.377228 
L 25.886338 332.377228 
Q 19.919862 332.377228 19.919862 334.469982 
L 19.919862 338.99033 
Q 19.919862 341.083083 25.886338 341.083083 
z
" clip-path="url(#p7011d97b38)" style="fill: #fcedee; stroke: #f1b7b7; stroke-width: 0.8; stroke-linejoin: miter"/>
   </g>
   <g id="patch_96">
    <path d="M 114.190174 341.083083 
L 167.649794 341.083083 
Q 173.616269 341.083083 173.616269 338.99033 
L 173.616269 334.469982 
Q 173.616269 332.377228 167.649794 332.377228 
L 114.190174 332.377228 
Q 108.223699 332.377228 108.223699 334.469982 
L 108.223699 338.99033 
Q 108.223699 341.083083 114.190174 341.083083 
z
" clip-path="url(#p7011d97b38)" style="fill: #eef3f8; stroke: #b8c2c8; stroke-width: 0.8; stroke-linejoin: miter"/>
   </g>
   <g id="patch_97">
    <path d="M 197.72083 341.083083 
L 241.634089 341.083083 
Q 247.600565 341.083083 247.600565 338.99033 
L 247.600565 334.469982 
Q 247.600565 332.377228 241.634089 332.377228 
L 197.72083 332.377228 
Q 191.754355 332.377228 191.754355 334.469982 
L 191.754355 338.99033 
Q 191.754355 341.083083 197.72083 341.083083 
z
" clip-path="url(#p7011d97b38)" style="fill: #eef7f4; stroke: #b8d8c8; stroke-width: 0.8; stroke-linejoin: miter"/>
   </g>
   <g id="patch_98">
    <path d="M 25.886338 352.383953 
L 81.732548 352.383953 
Q 87.699023 352.383953 87.699023 350.2912 
L 87.699023 345.770852 
Q 87.699023 343.678098 81.732548 343.678098 
L 25.886338 343.678098 
Q 19.919862 343.678098 19.919862 345.770852 
L 19.919862 350.2912 
Q 19.919862 352.383953 25.886338 352.383953 
z
" clip-path="url(#p7011d97b38)" style="fill: #fcedee; stroke: #f1b7b7; stroke-width: 0.8; stroke-linejoin: miter"/>
   </g>
   <g id="patch_99">
    <path d="M 114.190174 352.383953 
L 167.649794 352.383953 
Q 173.616269 352.383953 173.616269 350.2912 
L 173.616269 345.770852 
Q 173.616269 343.678098 167.649794 343.678098 
L 114.190174 343.678098 
Q 108.223699 343.678098 108.223699 345.770852 
L 108.223699 350.2912 
Q 108.223699 352.383953 114.190174 352.383953 
z
" clip-path="url(#p7011d97b38)" style="fill: #eef3f8; stroke: #b8c2c8; stroke-width: 0.8; stroke-linejoin: miter"/>
   </g>
   <g id="patch_100">
    <path d="M 197.72083 352.383953 
L 241.634089 352.383953 
Q 247.600565 352.383953 247.600565 350.2912 
L 247.600565 345.770852 
Q 247.600565 343.678098 241.634089 343.678098 
L 197.72083 343.678098 
Q 191.754355 343.678098 191.754355 345.770852 
L 191.754355 350.2912 
Q 191.754355 352.383953 197.72083 352.383953 
z
" clip-path="url(#p7011d97b38)" style="fill: #eef7f4; stroke: #b8d8c8; stroke-width: 0.8; stroke-linejoin: miter"/>
   </g>
   <g id="matplotlib.axis_9"/>
   <g id="matplotlib.axis_10"/>
   <g id="text_46">
    <text style="fill: #263238; font: 700 10px 'Arial', 'Helvetica', 'Liberation Sans', 'DejaVu Sans', sans-serif; text-anchor: start" x="6.077639" y="272.811209" transform="rotate(-0 6.077639 272.811209)">E</text>
   </g>
   <g id="text_47">
    <text style="fill: #263238; font: 700 8.2px 'Arial', 'Helvetica', 'Liberation Sans', 'DejaVu Sans', sans-serif; text-anchor: start" x="34.716721" y="274.733005" transform="rotate(-0 34.716721 274.733005)">Diagnostic controls and metrics</text>
   </g>
   <g id="text_48">
    <text style="fill: #263238; font: 6.3px 'Arial', 'Helvetica', 'Liberation Sans', 'DejaVu Sans', sans-serif; text-anchor: middle" x="53.809443" y="293.11841" transform="rotate(-0 53.809443 293.11841)">Donor leakage</text>
   </g>
   <g id="patch_101">
    <path d="M 89.222281 291.526676 
Q 97.960605 291.526676 105.580896 291.526676 
" style="fill: none; stroke: #61717a; stroke-linecap: round"/>
    <path d="M 102.700896 290.086676 
L 105.580896 291.526676 
L 102.700896 292.966676 
z
" style="fill: #61717a; stroke: #61717a; stroke-linecap: round"/>
   </g>
   <g id="text_49">
    <text style="fill: #263238; font: 700 6.3px 'Arial', 'Helvetica', 'Liberation Sans', 'DejaVu Sans', sans-serif; text-anchor: middle" x="140.919984" y="293.159754" transform="rotate(-0 140.919984 293.159754)">Donor-holdout</text>
   </g>
   <g id="patch_102">
    <path d="M 175.138653 291.526676 
Q 182.685705 291.526676 189.114724 291.526676 
" style="fill: none; stroke: #61717a; stroke-linecap: round"/>
    <path d="M 186.234724 290.086676 
L 189.114724 291.526676 
L 186.234724 292.966676 
z
" style="fill: #61717a; stroke: #61717a; stroke-linecap: round"/>
   </g>
   <g id="text_50">
    <text style="fill: #263238; font: 6.1px 'Arial', 'Helvetica', 'Liberation Sans', 'DejaVu Sans', sans-serif; text-anchor: middle" x="219.67746" y="293.103621" transform="rotate(-0 219.67746 293.103621)">AUROC/AUPRC/BA</text>
   </g>
   <g id="text_51">
    <text style="fill: #263238; font: 6.3px 'Arial', 'Helvetica', 'Liberation Sans', 'DejaVu Sans', sans-serif; text-anchor: middle" x="53.809443" y="304.457671" transform="rotate(-0 53.809443 304.457671)">Metadata confounding</text>
   </g>
   <g id="patch_103">
    <path d="M 89.222281 302.827546 
Q 97.960605 302.827546 105.580896 302.827546 
" style="fill: none; stroke: #61717a; stroke-linecap: round"/>
    <path d="M 102.700896 301.387546 
L 105.580896 302.827546 
L 102.700896 304.267546 
z
" style="fill: #61717a; stroke: #61717a; stroke-linecap: round"/>
   </g>
   <g id="text_52">
    <text style="fill: #263238; font: 700 6.3px 'Arial', 'Helvetica', 'Liberation Sans', 'DejaVu Sans', sans-serif; text-anchor: middle" x="140.919984" y="304.41928" transform="rotate(-0 140.919984 304.41928)">Metadata-only</text>
   </g>
   <g id="patch_104">
    <path d="M 175.138653 302.827546 
Q 182.685705 302.827546 189.114724 302.827546 
" style="fill: none; stroke: #61717a; stroke-linecap: round"/>
    <path d="M 186.234724 301.387546 
L 189.114724 302.827546 
L 186.234724 304.267546 
z
" style="fill: #61717a; stroke: #61717a; stroke-linecap: round"/>
   </g>
   <g id="text_53">
    <text style="fill: #263238; font: 6.1px 'Arial', 'Helvetica', 'Liberation Sans', 'DejaVu Sans', sans-serif; text-anchor: middle" x="219.67746" y="304.404491" transform="rotate(-0 219.67746 304.404491)">Incremental value</text>
   </g>
   <g id="text_54">
    <text style="fill: #263238; font: 6.3px 'Arial', 'Helvetica', 'Liberation Sans', 'DejaVu Sans', sans-serif; text-anchor: middle" x="53.809443" y="315.758541" transform="rotate(-0 53.809443 315.758541)">Disease confounding</text>
   </g>
   <g id="patch_105">
    <path d="M 89.222281 314.128416 
Q 97.960605 314.128416 105.580896 314.128416 
" style="fill: none; stroke: #61717a; stroke-linecap: round"/>
    <path d="M 102.700896 312.688416 
L 105.580896 314.128416 
L 102.700896 315.568416 
z
" style="fill: #61717a; stroke: #61717a; stroke-linecap: round"/>
   </g>
   <g id="text_55">
    <text style="fill: #263238; font: 700 6.3px 'Arial', 'Helvetica', 'Liberation Sans', 'DejaVu Sans', sans-serif; text-anchor: middle" x="140.919984" y="315.761494" transform="rotate(-0 140.919984 315.761494)">Disease-free</text>
   </g>
   <g id="patch_106">
    <path d="M 175.138653 314.128416 
Q 182.685705 314.128416 189.114724 314.128416 
" style="fill: none; stroke: #61717a; stroke-linecap: round"/>
    <path d="M 186.234724 312.688416 
L 189.114724 314.128416 
L 186.234724 315.568416 
z
" style="fill: #61717a; stroke: #61717a; stroke-linecap: round"/>
   </g>
   <g id="text_56">
    <text style="fill: #263238; font: 6.1px 'Arial', 'Helvetica', 'Liberation Sans', 'DejaVu Sans', sans-serif; text-anchor: middle" x="219.67746" y="315.706791" transform="rotate(-0 219.67746 315.706791)">Sensitivity</text>
   </g>
   <g id="text_57">
    <text style="fill: #263238; font: 6.3px 'Arial', 'Helvetica', 'Liberation Sans', 'DejaVu Sans', sans-serif; text-anchor: middle" x="53.809443" y="327.02102" transform="rotate(-0 53.809443 327.02102)">Label leakage</text>
   </g>
   <g id="patch_107">
    <path d="M 89.222281 325.429286 
Q 97.960605 325.429286 105.580896 325.429286 
" style="fill: none; stroke: #61717a; stroke-linecap: round"/>
    <path d="M 102.700896 323.989286 
L 105.580896 325.429286 
L 102.700896 326.869286 
z
" style="fill: #61717a; stroke: #61717a; stroke-linecap: round"/>
   </g>
   <g id="text_58">
    <text style="fill: #263238; font: 700 6.3px 'Arial', 'Helvetica', 'Liberation Sans', 'DejaVu Sans', sans-serif; text-anchor: middle" x="140.919984" y="327.059411" transform="rotate(-0 140.919984 327.059411)">Label shuffling</text>
   </g>
   <g id="patch_108">
    <path d="M 175.138653 325.429286 
Q 182.685705 325.429286 189.114724 325.429286 
" style="fill: none; stroke: #61717a; stroke-linecap: round"/>
    <path d="M 186.234724 323.989286 
L 189.114724 325.429286 
L 186.234724 326.869286 
z
" style="fill: #61717a; stroke: #61717a; stroke-linecap: round"/>
   </g>
   <g id="text_59">
    <text style="fill: #263238; font: 6.1px 'Arial', 'Helvetica', 'Liberation Sans', 'DejaVu Sans', sans-serif; text-anchor: middle" x="219.67746" y="326.970489" transform="rotate(-0 219.67746 326.970489)">Negative control</text>
   </g>
   <g id="text_60">
    <text style="fill: #263238; font: 6.3px 'Arial', 'Helvetica', 'Liberation Sans', 'DejaVu Sans', sans-serif; text-anchor: middle" x="53.809443" y="338.397195" transform="rotate(-0 53.809443 338.397195)">Cells per donor</text>
   </g>
   <g id="patch_109">
    <path d="M 89.222281 336.730156 
Q 97.960605 336.730156 105.580896 336.730156 
" style="fill: none; stroke: #61717a; stroke-linecap: round"/>
    <path d="M 102.700896 335.290156 
L 105.580896 336.730156 
L 102.700896 338.170156 
z
" style="fill: #61717a; stroke: #61717a; stroke-linecap: round"/>
   </g>
   <g id="text_61">
    <text style="fill: #263238; font: 700 6.3px 'Arial', 'Helvetica', 'Liberation Sans', 'DejaVu Sans', sans-serif; text-anchor: middle" x="140.919984" y="338.360281" transform="rotate(-0 140.919984 338.360281)">Sampling depth</text>
   </g>
   <g id="patch_110">
    <path d="M 175.138653 336.730156 
Q 182.685705 336.730156 189.114724 336.730156 
" style="fill: none; stroke: #61717a; stroke-linecap: round"/>
    <path d="M 186.234724 335.290156 
L 189.114724 336.730156 
L 186.234724 338.170156 
z
" style="fill: #61717a; stroke: #61717a; stroke-linecap: round"/>
   </g>
   <g id="text_62">
    <text style="fill: #263238; font: 6.1px 'Arial', 'Helvetica', 'Liberation Sans', 'DejaVu Sans', sans-serif; text-anchor: middle" x="219.67746" y="338.308531" transform="rotate(-0 219.67746 338.308531)">Stability</text>
   </g>
   <g id="text_63">
    <text style="fill: #263238; font: 6.3px 'Arial', 'Helvetica', 'Liberation Sans', 'DejaVu Sans', sans-serif; text-anchor: middle" x="53.809443" y="349.661151" transform="rotate(-0 53.809443 349.661151)">Split instability</text>
   </g>
   <g id="patch_111">
    <path d="M 89.222281 348.031026 
Q 97.960605 348.031026 105.580896 348.031026 
" style="fill: none; stroke: #61717a; stroke-linecap: round"/>
    <path d="M 102.700896 346.591026 
L 105.580896 348.031026 
L 102.700896 349.471026 
z
" style="fill: #61717a; stroke: #61717a; stroke-linecap: round"/>
   </g>
   <g id="text_64">
    <text style="fill: #263238; font: 700 6.3px 'Arial', 'Helvetica', 'Liberation Sans', 'DejaVu Sans', sans-serif; text-anchor: middle" x="140.919984" y="349.664104" transform="rotate(-0 140.919984 349.664104)">30 seeds</text>
   </g>
   <g id="patch_112">
    <path d="M 175.138653 348.031026 
Q 182.685705 348.031026 189.114724 348.031026 
" style="fill: none; stroke: #61717a; stroke-linecap: round"/>
    <path d="M 186.234724 346.591026 
L 189.114724 348.031026 
L 186.234724 349.471026 
z
" style="fill: #61717a; stroke: #61717a; stroke-linecap: round"/>
   </g>
   <g id="text_65">
    <text style="fill: #263238; font: 6.1px 'Arial', 'Helvetica', 'Liberation Sans', 'DejaVu Sans', sans-serif; text-anchor: middle" x="219.67746" y="349.607971" transform="rotate(-0 219.67746 349.607971)">Paired difference</text>
   </g>
  </g>
  <g id="axes_6">
   <g id="patch_113">
    <path d="M 283.211383 361.8432 
L 521.8704 361.8432 
L 521.8704 278.133052 
L 283.211383 278.133052 
z
" style="fill: #ffffff"/>
   </g>
   <g id="matplotlib.axis_11">
    <g id="text_66">
     <text style="font: 7.2px 'Arial', 'Helvetica', 'Liberation Sans', 'DejaVu Sans', sans-serif; text-anchor: middle" x="402.540891" y="370.996825" transform="rotate(-0 402.540891 370.996825)">AUROC</text>
    </g>
   </g>
   <g id="matplotlib.axis_12">
    <g id="ytick_1">
     <g id="line2d_1">
      <defs>
       <path id="m53ac040896" d="M 0 0 
L -3.5 0 
" style="stroke: #000000; stroke-width: 0.8"/>
      </defs>
      <g>
       <use xlink:href="#m53ac040896" x="283.211383" y="285.605535" style="stroke: #000000; stroke-width: 0.8"/>
      </g>
     </g>
     <g id="text_67">
      <text style="font: 6.5px 'Arial', 'Helvetica', 'Liberation Sans', 'DejaVu Sans', sans-serif; text-anchor: end" x="276.211383" y="287.931824" transform="rotate(-0 276.211383 287.931824)">Random-cell</text>
     </g>
    </g>
    <g id="ytick_2">
     <g id="line2d_2">
      <g>
       <use xlink:href="#m53ac040896" x="283.211383" y="308.527262" style="stroke: #000000; stroke-width: 0.8"/>
      </g>
     </g>
     <g id="text_68">
      <text style="font: 6.5px 'Arial', 'Helvetica', 'Liberation Sans', 'DejaVu Sans', sans-serif; text-anchor: end" x="276.211383" y="310.853551" transform="rotate(-0 276.211383 310.853551)">Donor</text>
     </g>
    </g>
    <g id="ytick_3">
     <g id="line2d_3">
      <g>
       <use xlink:href="#m53ac040896" x="283.211383" y="331.44899" style="stroke: #000000; stroke-width: 0.8"/>
      </g>
     </g>
     <g id="text_69">
      <text style="font: 6.5px 'Arial', 'Helvetica', 'Liberation Sans', 'DejaVu Sans', sans-serif; text-anchor: end" x="276.211383" y="333.775279" transform="rotate(-0 276.211383 333.775279)">Dataset</text>
     </g>
    </g>
    <g id="ytick_4">
     <g id="line2d_4">
      <g>
       <use xlink:href="#m53ac040896" x="283.211383" y="354.370717" style="stroke: #000000; stroke-width: 0.8"/>
      </g>
     </g>
     <g id="text_70">
      <text style="font: 6.5px 'Arial', 'Helvetica', 'Liberation Sans', 'DejaVu Sans', sans-serif; text-anchor: end" x="276.211383" y="356.697006" transform="rotate(-0 276.211383 356.697006)">Disease-free</text>
     </g>
    </g>
   </g>
   <g id="LineCollection_1">
    <path d="M 486.428519 289.273012 
L 491.348699 289.273012 
" clip-path="url(#p97be9513b8)" style="fill: none; stroke: #6b6b6b; stroke-width: 0.8"/>
    <path d="M 456.125545 312.194739 
L 475.377869 312.194739 
" clip-path="url(#p97be9513b8)" style="fill: none; stroke: #6b6b6b; stroke-width: 0.8"/>
    <path d="M 306.703217 335.116466 
L 379.435973 335.116466 
" clip-path="url(#p97be9513b8)" style="fill: none; stroke: #6b6b6b; stroke-width: 0.8"/>
    <path d="M 413.579911 358.038193 
L 431.392385 358.038193 
" clip-path="url(#p97be9513b8)" style="fill: none; stroke: #6b6b6b; stroke-width: 0.8"/>
   </g>
   <g id="line2d_5">
    <defs>
     <path id="m2c59ec65db" d="M 0 1.8 
L 0 -1.8 
" style="stroke: #6b6b6b"/>
    </defs>
    <g clip-path="url(#p97be9513b8)">
     <use xlink:href="#m2c59ec65db" x="486.428519" y="289.273012" style="fill: #6b6b6b; stroke: #6b6b6b"/>
     <use xlink:href="#m2c59ec65db" x="456.125545" y="312.194739" style="fill: #6b6b6b; stroke: #6b6b6b"/>
     <use xlink:href="#m2c59ec65db" x="306.703217" y="335.116466" style="fill: #6b6b6b; stroke: #6b6b6b"/>
     <use xlink:href="#m2c59ec65db" x="413.579911" y="358.038193" style="fill: #6b6b6b; stroke: #6b6b6b"/>
    </g>
   </g>
   <g id="line2d_6">
    <g clip-path="url(#p97be9513b8)">
     <use xlink:href="#m2c59ec65db" x="491.348699" y="289.273012" style="fill: #6b6b6b; stroke: #6b6b6b"/>
     <use xlink:href="#m2c59ec65db" x="475.377869" y="312.194739" style="fill: #6b6b6b; stroke: #6b6b6b"/>
     <use xlink:href="#m2c59ec65db" x="379.435973" y="335.116466" style="fill: #6b6b6b; stroke: #6b6b6b"/>
     <use xlink:href="#m2c59ec65db" x="431.392385" y="358.038193" style="fill: #6b6b6b; stroke: #6b6b6b"/>
    </g>
   </g>
   <g id="LineCollection_2">
    <path d="M 463.781557 285.605535 
L 469.664345 285.605535 
" clip-path="url(#p97be9513b8)" style="fill: none; stroke: #54a24b; stroke-width: 0.8"/>
    <path d="M 447.473754 308.527262 
L 459.494021 308.527262 
" clip-path="url(#p97be9513b8)" style="fill: none; stroke: #54a24b; stroke-width: 0.8"/>
    <path d="M 368.304934 331.44899 
L 415.96384 331.44899 
" clip-path="url(#p97be9513b8)" style="fill: none; stroke: #54a24b; stroke-width: 0.8"/>
    <path d="M 451.817109 354.370717 
L 462.181359 354.370717 
" clip-path="url(#p97be9513b8)" style="fill: none; stroke: #54a24b; stroke-width: 0.8"/>
   </g>
   <g id="line2d_7">
    <defs>
     <path id="m06589bf49e" d="M 0 1.8 
L 0 -1.8 
" style="stroke: #54a24b"/>
    </defs>
    <g clip-path="url(#p97be9513b8)">
     <use xlink:href="#m06589bf49e" x="463.781557" y="285.605535" style="fill: #54a24b; stroke: #54a24b"/>
     <use xlink:href="#m06589bf49e" x="447.473754" y="308.527262" style="fill: #54a24b; stroke: #54a24b"/>
     <use xlink:href="#m06589bf49e" x="368.304934" y="331.44899" style="fill: #54a24b; stroke: #54a24b"/>
     <use xlink:href="#m06589bf49e" x="451.817109" y="354.370717" style="fill: #54a24b; stroke: #54a24b"/>
    </g>
   </g>
   <g id="line2d_8">
    <g clip-path="url(#p97be9513b8)">
     <use xlink:href="#m06589bf49e" x="469.664345" y="285.605535" style="fill: #54a24b; stroke: #54a24b"/>
     <use xlink:href="#m06589bf49e" x="459.494021" y="308.527262" style="fill: #54a24b; stroke: #54a24b"/>
     <use xlink:href="#m06589bf49e" x="415.96384" y="331.44899" style="fill: #54a24b; stroke: #54a24b"/>
     <use xlink:href="#m06589bf49e" x="462.181359" y="354.370717" style="fill: #54a24b; stroke: #54a24b"/>
    </g>
   </g>
   <g id="LineCollection_3">
    <path d="M 479.778679 281.938059 
L 483.554428 281.938059 
" clip-path="url(#p97be9513b8)" style="fill: none; stroke: #b279a2; stroke-width: 0.8"/>
    <path d="M 460.119432 304.859786 
L 468.585522 304.859786 
" clip-path="url(#p97be9513b8)" style="fill: none; stroke: #b279a2; stroke-width: 0.8"/>
    <path d="M 350.226502 327.781513 
L 393.112552 327.781513 
" clip-path="url(#p97be9513b8)" style="fill: none; stroke: #b279a2; stroke-width: 0.8"/>
    <path d="M 492.059966 350.703241 
L 500.791211 350.703241 
" clip-path="url(#p97be9513b8)" style="fill: none; stroke: #b279a2; stroke-width: 0.8"/>
   </g>
   <g id="line2d_9">
    <defs>
     <path id="mdcc6a96afa" d="M 0 1.8 
L 0 -1.8 
" style="stroke: #b279a2"/>
    </defs>
    <g clip-path="url(#p97be9513b8)">
     <use xlink:href="#mdcc6a96afa" x="479.778679" y="281.938059" style="fill: #b279a2; stroke: #b279a2"/>
     <use xlink:href="#mdcc6a96afa" x="460.119432" y="304.859786" style="fill: #b279a2; stroke: #b279a2"/>
     <use xlink:href="#mdcc6a96afa" x="350.226502" y="327.781513" style="fill: #b279a2; stroke: #b279a2"/>
     <use xlink:href="#mdcc6a96afa" x="492.059966" y="350.703241" style="fill: #b279a2; stroke: #b279a2"/>
    </g>
   </g>
   <g id="line2d_10">
    <g clip-path="url(#p97be9513b8)">
     <use xlink:href="#mdcc6a96afa" x="483.554428" y="281.938059" style="fill: #b279a2; stroke: #b279a2"/>
     <use xlink:href="#mdcc6a96afa" x="468.585522" y="304.859786" style="fill: #b279a2; stroke: #b279a2"/>
     <use xlink:href="#mdcc6a96afa" x="393.112552" y="327.781513" style="fill: #b279a2; stroke: #b279a2"/>
     <use xlink:href="#mdcc6a96afa" x="500.791211" y="350.703241" style="fill: #b279a2; stroke: #b279a2"/>
    </g>
   </g>
   <g id="line2d_11">
    <defs>
     <path id="m02c90d79e1" d="M 0 1.6 
C 0.424325 1.6 0.831328 1.431414 1.131371 1.131371 
C 1.431414 0.831328 1.6 0.424325 1.6 0 
C 1.6 -0.424325 1.431414 -0.831328 1.131371 -1.131371 
C 0.831328 -1.431414 0.424325 -1.6 0 -1.6 
C -0.424325 -1.6 -0.831328 -1.431414 -1.131371 -1.131371 
C -1.431414 -0.831328 -1.6 -0.424325 -1.6 0 
C -1.6 0.424325 -1.431414 0.831328 -1.131371 1.131371 
C -0.831328 1.431414 -0.424325 1.6 0 1.6 
z
" style="stroke: #6b6b6b"/>
    </defs>
    <g clip-path="url(#p97be9513b8)">
     <use xlink:href="#m02c90d79e1" x="488.888609" y="289.273012" style="fill: #6b6b6b; stroke: #6b6b6b"/>
     <use xlink:href="#m02c90d79e1" x="465.751707" y="312.194739" style="fill: #6b6b6b; stroke: #6b6b6b"/>
     <use xlink:href="#m02c90d79e1" x="343.069595" y="335.116466" style="fill: #6b6b6b; stroke: #6b6b6b"/>
     <use xlink:href="#m02c90d79e1" x="422.486148" y="358.038193" style="fill: #6b6b6b; stroke: #6b6b6b"/>
    </g>
   </g>
   <g id="line2d_12">
    <defs>
     <path id="m9bbbf4c266" d="M 0 1.6 
C 0.424325 1.6 0.831328 1.431414 1.131371 1.131371 
C 1.431414 0.831328 1.6 0.424325 1.6 0 
C 1.6 -0.424325 1.431414 -0.831328 1.131371 -1.131371 
C 0.831328 -1.431414 0.424325 -1.6 0 -1.6 
C -0.424325 -1.6 -0.831328 -1.431414 -1.131371 -1.131371 
C -1.431414 -0.831328 -1.6 -0.424325 -1.6 0 
C -1.6 0.424325 -1.431414 0.831328 -1.131371 1.131371 
C -0.831328 1.431414 -0.424325 1.6 0 1.6 
z
" style="stroke: #54a24b"/>
    </defs>
    <g clip-path="url(#p97be9513b8)">
     <use xlink:href="#m9bbbf4c266" x="466.722951" y="285.605535" style="fill: #54a24b; stroke: #54a24b"/>
     <use xlink:href="#m9bbbf4c266" x="453.483887" y="308.527262" style="fill: #54a24b; stroke: #54a24b"/>
     <use xlink:href="#m9bbbf4c266" x="392.134387" y="331.44899" style="fill: #54a24b; stroke: #54a24b"/>
     <use xlink:href="#m9bbbf4c266" x="456.999234" y="354.370717" style="fill: #54a24b; stroke: #54a24b"/>
    </g>
   </g>
   <g id="line2d_13">
    <defs>
     <path id="m40811c0e11" d="M 0 1.6 
C 0.424325 1.6 0.831328 1.431414 1.131371 1.131371 
C 1.431414 0.831328 1.6 0.424325 1.6 0 
C 1.6 -0.424325 1.431414 -0.831328 1.131371 -1.131371 
C 0.831328 -1.431414 0.424325 -1.6 0 -1.6 
C -0.424325 -1.6 -0.831328 -1.431414 -1.131371 -1.131371 
C -1.431414 -0.831328 -1.6 -0.424325 -1.6 0 
C -1.6 0.424325 -1.431414 0.831328 -1.131371 1.131371 
C -0.831328 1.431414 -0.424325 1.6 0 1.6 
z
" style="stroke: #b279a2"/>
    </defs>
    <g clip-path="url(#p97be9513b8)">
     <use xlink:href="#m40811c0e11" x="481.666554" y="281.938059" style="fill: #b279a2; stroke: #b279a2"/>
     <use xlink:href="#m40811c0e11" x="464.352477" y="304.859786" style="fill: #b279a2; stroke: #b279a2"/>
     <use xlink:href="#m40811c0e11" x="371.669527" y="327.781513" style="fill: #b279a2; stroke: #b279a2"/>
     <use xlink:href="#m40811c0e11" x="496.425588" y="350.703241" style="fill: #b279a2; stroke: #b279a2"/>
    </g>
   </g>
   <g id="text_71">
    <text style="fill: #263238; font: 700 10px 'Arial', 'Helvetica', 'Liberation Sans', 'DejaVu Sans', sans-serif; text-anchor: start" x="273.665022" y="272.811209" transform="rotate(-0 273.665022 272.811209)">F</text>
   </g>
   <g id="text_72">
    <text style="fill: #263238; font: 700 8.2px 'Arial', 'Helvetica', 'Liberation Sans', 'DejaVu Sans', sans-serif; text-anchor: start" x="302.304104" y="274.733005" transform="rotate(-0 302.304104 274.733005)">Key benchmark findings</text>
   </g>
   <g id="text_73">
    <text style="fill: #263238; font: 5.8px 'Arial', 'Helvetica', 'Liberation Sans', 'DejaVu Sans', sans-serif" transform="translate(287.984563 340.391722)">Key patterns:</text>
    <text style="fill: #263238; font: 5.8px 'Arial', 'Helvetica', 'Liberation Sans', 'DejaVu Sans', sans-serif" transform="translate(287.984563 346.594278)">• random-cell optimistic</text>
    <text style="fill: #263238; font: 5.8px 'Arial', 'Helvetica', 'Liberation Sans', 'DejaVu Sans', sans-serif" transform="translate(287.984563 352.728866)">• metadata structure predictive</text>
    <text style="fill: #263238; font: 5.8px 'Arial', 'Helvetica', 'Liberation Sans', 'DejaVu Sans', sans-serif" transform="translate(287.984563 358.948278)">• donor/dataset-aware estimates changed</text>
   </g>
   <g id="legend_1">
    <g id="LineCollection_4">
     <path d="M 336.764311 376.76759 
L 343.264311 376.76759 
" style="fill: none; stroke: #6b6b6b; stroke-width: 0.8"/>
    </g>
    <g id="line2d_14">
     <g>
      <use xlink:href="#m2c59ec65db" x="336.764311" y="376.76759" style="fill: #6b6b6b; stroke: #6b6b6b"/>
     </g>
    </g>
    <g id="line2d_15">
     <g>
      <use xlink:href="#m2c59ec65db" x="343.264311" y="376.76759" style="fill: #6b6b6b; stroke: #6b6b6b"/>
     </g>
    </g>
    <g id="line2d_16"/>
    <g id="line2d_17">
     <g>
      <use xlink:href="#m02c90d79e1" x="340.014311" y="376.76759" style="fill: #6b6b6b; stroke: #6b6b6b"/>
     </g>
    </g>
    <g id="text_74">
     <text style="font: 6.5px 'Arial', 'Helvetica', 'Liberation Sans', 'DejaVu Sans', sans-serif; text-anchor: start" x="349.114311" y="379.04259" transform="rotate(-0 349.114311 379.04259)">Metadata-only</text>
    </g>
    <g id="LineCollection_5">
     <path d="M 399.400952 376.76759 
L 405.900952 376.76759 
" style="fill: none; stroke: #54a24b; stroke-width: 0.8"/>
    </g>
    <g id="line2d_18">
     <g>
      <use xlink:href="#m06589bf49e" x="399.400952" y="376.76759" style="fill: #54a24b; stroke: #54a24b"/>
     </g>
    </g>
    <g id="line2d_19">
     <g>
      <use xlink:href="#m06589bf49e" x="405.900952" y="376.76759" style="fill: #54a24b; stroke: #54a24b"/>
     </g>
    </g>
    <g id="line2d_20"/>
    <g id="line2d_21">
     <g>
      <use xlink:href="#m9bbbf4c266" x="402.650952" y="376.76759" style="fill: #54a24b; stroke: #54a24b"/>
     </g>
    </g>
    <g id="text_75">
     <text style="font: 6.5px 'Arial', 'Helvetica', 'Liberation Sans', 'DejaVu Sans', sans-serif; text-anchor: start" x="411.750952" y="379.04259" transform="rotate(-0 411.750952 379.04259)">scVI</text>
    </g>
    <g id="LineCollection_6">
     <path d="M 433.492436 376.76759 
L 439.992436 376.76759 
" style="fill: none; stroke: #b279a2; stroke-width: 0.8"/>
    </g>
    <g id="line2d_22">
     <g>
      <use xlink:href="#mdcc6a96afa" x="433.492436" y="376.76759" style="fill: #b279a2; stroke: #b279a2"/>
     </g>
    </g>
    <g id="line2d_23">
     <g>
      <use xlink:href="#mdcc6a96afa" x="439.992436" y="376.76759" style="fill: #b279a2; stroke: #b279a2"/>
     </g>
    </g>
    <g id="line2d_24"/>
    <g id="line2d_25">
     <g>
      <use xlink:href="#m40811c0e11" x="436.742436" y="376.76759" style="fill: #b279a2; stroke: #b279a2"/>
     </g>
    </g>
    <g id="text_76">
     <text style="font: 6.5px 'Arial', 'Helvetica', 'Liberation Sans', 'DejaVu Sans', sans-serif; text-anchor: start" x="445.842436" y="379.04259" transform="rotate(-0 445.842436 379.04259)">TranscriptFormer</text>
    </g>
   </g>
  </g>
  <g id="text_77">
   <text style="fill: #263238; font: 700 11px 'Arial', 'Helvetica', 'Liberation Sans', 'DejaVu Sans', sans-serif; text-anchor: start" x="2.16" y="10.167656" transform="rotate(-0 2.16 10.167656)">Study design and leakage-aware evaluation framework</text>
  </g>
 </g>
 <defs>
  <clipPath id="p2a06bbbd8e">
   <rect x="15.624" y="29.5272" width="238.659017" height="79.72395"/>
  </clipPath>
  <clipPath id="p5d7667a3ea">
   <rect x="283.211383" y="29.5272" width="238.659017" height="79.72395"/>
  </clipPath>
  <clipPath id="p49d5fb18cd">
   <rect x="15.624" y="153.830126" width="238.659017" height="79.72395"/>
  </clipPath>
  <clipPath id="p35e723d846">
   <rect x="283.211383" y="153.830126" width="238.659017" height="79.72395"/>
  </clipPath>
  <clipPath id="p7011d97b38">
   <rect x="15.624" y="278.133052" width="238.659017" height="83.710148"/>
  </clipPath>
  <clipPath id="p97be9513b8">
   <rect x="283.211383" y="278.133052" width="238.659017" height="83.710148"/>
  </clipPath>
 </defs>
</svg>
